<svg xmlns="http://www.w3.org/2000/svg" viewBox="0 0 800 493.0" width="100%" height="100%">
<style>
        .box { fill: transparent; stroke: #30363d; stroke-width: 1px; rx: 8px; transition: fill 0.3s ease, stroke 0.3s ease; }
        .box-group:hover .box { fill: #1a1e23; stroke: #8b949e; }
        .title { fill: #c9d1d9; font-family: -apple-system, BlinkMacSystemFont, "Segoe UI", Helvetica, Arial, sans-serif; font-size: 15px; font-weight: 600; }
    </style>
<g class="box-group" transform="translate(0.0, 0)">
<rect class="box" x="0" y="0" width="529.3333333333334" height="143.0" />
<text class="title" x="264.6666666666667" y="32" text-anchor="middle">🎨 Frontend</text>
<svg x="61.541666666666686" y="55" xmlns="http://www.w3.org/2000/svg" width="88.25" height="28" role="img" aria-label="HTML5"><title>HTML5</title><g shape-rendering="crispEdges"><rect width="88.25" height="28" fill="#1a1a1a"/></g><g fill="#fff" text-anchor="middle" font-family="Verdana,Geneva,DejaVu Sans,sans-serif" text-rendering="geometricPrecision" font-size="100"><svg x="9" y="7" width="14" height="14" fill="white" role="img" viewBox="0 0 24 24" xmlns="http://www.w3.org/2000/svg"><title>HTML5</title><path d="M1.5 0h21l-1.91 21.563L11.977 24l-8.564-2.438L1.5 0zm7.031 9.75l-.232-2.718 10.059.003.23-2.622L5.412 4.41l.698 8.01h9.126l-.326 3.426-2.91.804-2.955-.81-.188-2.11H6.248l.33 4.171L12 19.351l5.379-1.443.744-8.157H8.531z"/></svg><text transform="scale(.1)" x="541.25" y="175" textLength="442.5" font-weight="bold">HTML5</text></g></svg>
<svg x="161.79166666666669" y="55" xmlns="http://www.w3.org/2000/svg" width="57" height="28" role="img" aria-label="CSS3"><title>CSS3</title><g shape-rendering="crispEdges"><rect width="57" height="28" fill="#1a1a1a"/></g><g fill="#fff" text-anchor="middle" font-family="Verdana,Geneva,DejaVu Sans,sans-serif" text-rendering="geometricPrecision" font-size="100"><text transform="scale(.1)" x="285" y="175" textLength="330" font-weight="bold">CSS3</text></g></svg>
<svg x="230.79166666666669" y="55" xmlns="http://www.w3.org/2000/svg" width="86.25" height="28" role="img" aria-label="REACT"><title>REACT</title><g shape-rendering="crispEdges"><rect width="86.25" height="28" fill="#1a1a1a"/></g><g fill="#fff" text-anchor="middle" font-family="Verdana,Geneva,DejaVu Sans,sans-serif" text-rendering="geometricPrecision" font-size="100"><svg x="9" y="7" width="14" height="14" fill="white" role="img" viewBox="0 0 24 24" xmlns="http://www.w3.org/2000/svg"><title>React</title><path d="M14.23 12.004a2.236 2.236 0 0 1-2.235 2.236 2.236 2.236 0 0 1-2.236-2.236 2.236 2.236 0 0 1 2.235-2.236 2.236 2.236 0 0 1 2.236 2.236zm2.648-10.69c-1.346 0-3.107.96-4.888 2.622-1.78-1.653-3.542-2.602-4.887-2.602-.41 0-.783.093-1.106.278-1.375.793-1.683 3.264-.973 6.365C1.98 8.917 0 10.42 0 12.004c0 1.59 1.99 3.097 5.043 4.03-.704 3.113-.39 5.588.988 6.38.32.187.69.275 1.102.275 1.345 0 3.107-.96 4.888-2.624 1.78 1.654 3.542 2.603 4.887 2.603.41 0 .783-.09 1.106-.275 1.374-.792 1.683-3.263.973-6.365C22.02 15.096 24 13.59 24 12.004c0-1.59-1.99-3.097-5.043-4.032.704-3.11.39-5.587-.988-6.38-.318-.184-.688-.277-1.092-.278zm-.005 1.09v.006c.225 0 .406.044.558.127.666.382.955 1.835.73 3.704-.054.46-.142.945-.25 1.44-.96-.236-2.006-.417-3.107-.534-.66-.905-1.345-1.727-2.035-2.447 1.592-1.48 3.087-2.292 4.105-2.295zm-9.77.02c1.012 0 2.514.808 4.11 2.28-.686.72-1.37 1.537-2.02 2.442-1.107.117-2.154.298-3.113.538-.112-.49-.195-.964-.254-1.42-.23-1.868.054-3.32.714-3.707.19-.09.4-.127.563-.132zm4.882 3.05c.455.468.91.992 1.36 1.564-.44-.02-.89-.034-1.345-.034-.46 0-.915.01-1.36.034.44-.572.895-1.096 1.345-1.565zM12 8.1c.74 0 1.477.034 2.202.093.406.582.802 1.203 1.183 1.86.372.64.71 1.29 1.018 1.946-.308.655-.646 1.31-1.013 1.95-.38.66-.773 1.288-1.18 1.87-.728.063-1.466.098-2.21.098-.74 0-1.477-.035-2.202-.093-.406-.582-.802-1.204-1.183-1.86-.372-.64-.71-1.29-1.018-1.946.303-.657.646-1.313 1.013-1.954.38-.66.773-1.286 1.18-1.868.728-.064 1.466-.098 2.21-.098zm-3.635.254c-.24.377-.48.763-.704 1.16-.225.39-.435.782-.635 1.174-.265-.656-.49-1.31-.676-1.947.64-.15 1.315-.283 2.015-.386zm7.26 0c.695.103 1.365.23 2.006.387-.18.632-.405 1.282-.66 1.933-.2-.39-.41-.783-.64-1.174-.225-.392-.465-.774-.705-1.146zm3.063.675c.484.15.944.317 1.375.498 1.732.74 2.852 1.708 2.852 2.476-.005.768-1.125 1.74-2.857 2.475-.42.18-.88.342-1.355.493-.28-.958-.646-1.956-1.1-2.98.45-1.017.81-2.01 1.085-2.964zm-13.395.004c.278.96.645 1.957 1.1 2.98-.45 1.017-.812 2.01-1.086 2.964-.484-.15-.944-.318-1.37-.5-1.732-.737-2.852-1.706-2.852-2.474 0-.768 1.12-1.742 2.852-2.476.42-.18.88-.342 1.356-.494zm11.678 4.28c.265.657.49 1.312.676 1.948-.64.157-1.316.29-2.016.39.24-.375.48-.762.705-1.158.225-.39.435-.788.636-1.18zm-9.945.02c.2.392.41.783.64 1.175.23.39.465.772.705 1.143-.695-.102-1.365-.23-2.006-.386.18-.63.406-1.282.66-1.933zM17.92 16.32c.112.493.2.968.254 1.423.23 1.868-.054 3.32-.714 3.708-.147.09-.338.128-.563.128-1.012 0-2.514-.807-4.11-2.28.686-.72 1.37-1.536 2.02-2.44 1.107-.118 2.154-.3 3.113-.54zm-11.83.01c.96.234 2.006.415 3.107.532.66.905 1.345 1.727 2.035 2.446-1.595 1.483-3.092 2.295-4.11 2.295-.22-.005-.406-.05-.553-.132-.666-.38-.955-1.834-.73-3.703.054-.46.142-.944.25-1.438zm4.56.64c.44.02.89.034 1.345.034.46 0 .915-.01 1.36-.034-.44.572-.895 1.095-1.345 1.565-.455-.47-.91-.993-1.36-1.565z"/></svg><text transform="scale(.1)" x="531.25" y="175" textLength="422.5" font-weight="bold">REACT</text></g></svg>
<svg x="329.0416666666667" y="55" xmlns="http://www.w3.org/2000/svg" width="138.75" height="28" role="img" aria-label="TAILWINDCSS"><title>TAILWINDCSS</title><g shape-rendering="crispEdges"><rect width="138.75" height="28" fill="#1a1a1a"/></g><g fill="#fff" text-anchor="middle" font-family="Verdana,Geneva,DejaVu Sans,sans-serif" text-rendering="geometricPrecision" font-size="100"><svg x="9" y="7" width="14" height="14" fill="white" role="img" viewBox="0 0 24 24" xmlns="http://www.w3.org/2000/svg"><title>Tailwind CSS</title><path d="M12.001,4.8c-3.2,0-5.2,1.6-6,4.8c1.2-1.6,2.6-2.2,4.2-1.8c0.913,0.228,1.565,0.89,2.288,1.624 C13.666,10.618,15.027,12,18.001,12c3.2,0,5.2-1.6,6-4.8c-1.2,1.6-2.6,2.2-4.2,1.8c-0.913-0.228-1.565-0.89-2.288-1.624 C16.337,6.182,14.976,4.8,12.001,4.8z M6.001,12c-3.2,0-5.2,1.6-6,4.8c1.2-1.6,2.6-2.2,4.2-1.8c0.913,0.228,1.565,0.89,2.288,1.624 c1.177,1.194,2.538,2.576,5.512,2.576c3.2,0,5.2-1.6,6-4.8c-1.2,1.6-2.6,2.2-4.2,1.8c-0.913-0.228-1.565-0.89-2.288-1.624 C10.337,13.382,8.976,12,6.001,12z"/></svg><text transform="scale(.1)" x="793.75" y="175" textLength="947.5" font-weight="bold">TAILWINDCSS</text></g></svg>
<svg x="112.41666666666669" y="95.0" xmlns="http://www.w3.org/2000/svg" width="123.25" height="28" role="img" aria-label="BOOTSTRAP"><title>BOOTSTRAP</title><g shape-rendering="crispEdges"><rect width="123.25" height="28" fill="#1a1a1a"/></g><g fill="#fff" text-anchor="middle" font-family="Verdana,Geneva,DejaVu Sans,sans-serif" text-rendering="geometricPrecision" font-size="100"><svg x="9" y="7" width="14" height="14" fill="white" role="img" viewBox="0 0 24 24" xmlns="http://www.w3.org/2000/svg"><title>Bootstrap</title><path d="M11.77 11.24H9.956V8.202h2.152c1.17 0 1.834.522 1.834 1.466 0 1.008-.773 1.572-2.174 1.572zm.324 1.206H9.957v3.348h2.231c1.459 0 2.232-.585 2.232-1.685s-.795-1.663-2.326-1.663zM24 11.39v1.218c-1.128.108-1.817.944-2.226 2.268-.407 1.319-.463 2.937-.42 4.186.045 1.3-.968 2.5-2.337 2.5H4.985c-1.37 0-2.383-1.2-2.337-2.5.043-1.249-.013-2.867-.42-4.186-.41-1.324-1.1-2.16-2.228-2.268V11.39c1.128-.108 1.819-.944 2.227-2.268.408-1.319.464-2.937.42-4.186-.045-1.3.968-2.5 2.338-2.5h14.032c1.37 0 2.382 1.2 2.337 2.5-.043 1.249.013 2.867.42 4.186.409 1.324 1.098 2.16 2.226 2.268zm-7.927 2.817c0-1.354-.953-2.333-2.368-2.488v-.057c1.04-.169 1.856-1.135 1.856-2.213 0-1.537-1.213-2.538-3.062-2.538h-4.16v10.172h4.181c2.218 0 3.553-1.086 3.553-2.876z"/></svg><text transform="scale(.1)" x="716.25" y="175" textLength="792.5" font-weight="bold">BOOTSTRAP</text></g></svg>
<svg x="247.66666666666669" y="95.0" xmlns="http://www.w3.org/2000/svg" width="75" height="28" role="img" aria-label="VITE"><title>VITE</title><g shape-rendering="crispEdges"><rect width="75" height="28" fill="#1a1a1a"/></g><g fill="#fff" text-anchor="middle" font-family="Verdana,Geneva,DejaVu Sans,sans-serif" text-rendering="geometricPrecision" font-size="100"><svg x="9" y="7" width="14" height="14" fill="white" role="img" viewBox="0 0 24 24" xmlns="http://www.w3.org/2000/svg"><title>Vite</title><path d="M13.056 23.238a.57.57 0 0 1-1.02-.355v-5.202c0-.63-.512-1.143-1.144-1.143H5.148a.57.57 0 0 1-.464-.903l3.777-5.29c.54-.753 0-1.804-.93-1.804H.57a.574.574 0 0 1-.543-.746.6.6 0 0 1 .08-.157L5.008.78a.57.57 0 0 1 .467-.24h14.589a.57.57 0 0 1 .466.903l-3.778 5.29c-.54.755 0 1.806.93 1.806h5.745c.238 0 .424.138.513.322a.56.56 0 0 1-.063.603z"/></svg><text transform="scale(.1)" x="475" y="175" textLength="310" font-weight="bold">VITE</text></g></svg>
<svg x="334.6666666666667" y="95.0" xmlns="http://www.w3.org/2000/svg" width="82.25" height="28" role="img" aria-label="JINJA"><title>JINJA</title><g shape-rendering="crispEdges"><rect width="82.25" height="28" fill="#1a1a1a"/></g><g fill="#fff" text-anchor="middle" font-family="Verdana,Geneva,DejaVu Sans,sans-serif" text-rendering="geometricPrecision" font-size="100"><svg x="9" y="7" width="14" height="14" fill="white" role="img" viewBox="0 0 24 24" xmlns="http://www.w3.org/2000/svg"><title>Jinja</title><path d="M23.613 3.494h-.087C19.268 4.91 13.69 4.91 12.14 4.885l-1.434-.025C6.476 4.705 4.318 3.082.538 1.394c-.261-.116-.565.077-.536.348.029.927.275 4.818 3.186 5.836.102.04.218.077.32.103.144.026.202.142.231.22l.246.76c.044.18.174.334.32.334h.245c.217 0 .391.155.406.348v.735c0 .077-.073.141-.16.141H2.928c-.174 0-.319.13-.319.284v1.147c0 .154.145.283.32.283h1.867c.087 0 .16.064.16.142v.31c0 .076-.073.141-.16.141H2.928c-.174.012-.305.128-.305.283v1.148c0 .129.116.27.247.27h1.94c.088 0 .16.065.16.142v7.537c0 .387.362.709.797.709h1.318c.434 0 .797-.322.797-.71V14.37c0-.077.072-.142.16-.142l8.14-.013c.087 0 .16.065.16.142v7.576c0 .386.362.709.797.709h1.318c.434 0 .796-.323.796-.71v-7.588c0-.077.073-.141.16-.141 0 0 2.028-.013 2.057-.026a.29.29 0 0 0 .144-.245v-1.135c0-.155-.144-.283-.333-.283h-2.013V12.5h-.015v-.425c0-.078.073-.142.16-.142h1.868c.174 0 .319-.129.319-.283v-1.147c0-.155-.145-.284-.32-.284h-1.867c-.087 0-.16-.064-.16-.14v-.736c0-.18.174-.348.406-.348h.246c.174 0 .275-.167.319-.335l.246-.76c.03-.103.13-.193.246-.232 1.869-.412 2.637-1.636 3.274-3.556V4.1c.072-.49-.26-.58-.377-.605zM16.37 8.97v1.12c0 .155-.102.271-.232.271h-2.607c-.13 0-.232-.116-.232-.27v-1.12c0-.143.1-.272.232-.272h2.607a.28.28 0 0 1 .232.27zm-5.375 0v1.12c0 .142-.102.271-.232.271H8.157c-.13 0-.232-.116-.232-.27v-1.12c0-.143.101-.272.232-.272h2.607a.28.28 0 0 1 .232.27z"/></svg><text transform="scale(.1)" x="511.25" y="175" textLength="382.5" font-weight="bold">JINJA</text></g></svg>
</g>
<g class="box-group" transform="translate(541.3333333333334, 0)">
<rect class="box" x="0" y="0" width="258.6666666666667" height="338.0" />
<text class="title" x="129.33333333333334" y="32" text-anchor="middle">🗄️ Databases &amp; Cloud</text>
<svg x="73.95833333333334" y="55" xmlns="http://www.w3.org/2000/svg" width="110.75" height="28" role="img" aria-label="MONGODB"><title>MONGODB</title><g shape-rendering="crispEdges"><rect width="110.75" height="28" fill="#1a1a1a"/></g><g fill="#fff" text-anchor="middle" font-family="Verdana,Geneva,DejaVu Sans,sans-serif" text-rendering="geometricPrecision" font-size="100"><svg x="9" y="7" width="14" height="14" fill="white" role="img" viewBox="0 0 24 24" xmlns="http://www.w3.org/2000/svg"><title>MongoDB</title><path d="M17.193 9.555c-1.264-5.58-4.252-7.414-4.573-8.115-.28-.394-.53-.954-.735-1.44-.036.495-.055.685-.523 1.184-.723.566-4.438 3.682-4.74 10.02-.282 5.912 4.27 9.435 4.888 9.884l.07.05A73.49 73.49 0 0111.91 24h.481c.114-1.032.284-2.056.51-3.07.417-.296.604-.463.85-.693a11.342 11.342 0 003.639-8.464c.01-.814-.103-1.662-.197-2.218zm-5.336 8.195s0-8.291.275-8.29c.213 0 .49 10.695.49 10.695-.381-.045-.765-1.76-.765-2.405z"/></svg><text transform="scale(.1)" x="653.75" y="175" textLength="667.5" font-weight="bold">MONGODB</text></g></svg>
<svg x="64.08333333333334" y="95.0" xmlns="http://www.w3.org/2000/svg" width="130.5" height="28" role="img" aria-label="POSTGRESQL"><title>POSTGRESQL</title><g shape-rendering="crispEdges"><rect width="130.5" height="28" fill="#1a1a1a"/></g><g fill="#fff" text-anchor="middle" font-family="Verdana,Geneva,DejaVu Sans,sans-serif" text-rendering="geometricPrecision" font-size="100"><svg x="9" y="7" width="14" height="14" fill="white" role="img" viewBox="0 0 24 24" xmlns="http://www.w3.org/2000/svg"><title>PostgreSQL</title><path d="M23.5594 14.7228a.5269.5269 0 0 0-.0563-.1191c-.139-.2632-.4768-.3418-1.0074-.2321-1.6533.3411-2.2935.1312-2.5256-.0191 1.342-2.0482 2.445-4.522 3.0411-6.8297.2714-1.0507.7982-3.5237.1222-4.7316a1.5641 1.5641 0 0 0-.1509-.235C21.6931.9086 19.8007.0248 17.5099.0005c-1.4947-.0158-2.7705.3461-3.1161.4794a9.449 9.449 0 0 0-.5159-.0816 8.044 8.044 0 0 0-1.3114-.1278c-1.1822-.0184-2.2038.2642-3.0498.8406-.8573-.3211-4.7888-1.645-7.2219.0788C.9359 2.1526.3086 3.8733.4302 6.3043c.0409.818.5069 3.334 1.2423 5.7436.4598 1.5065.9387 2.7019 1.4334 3.582.553.9942 1.1259 1.5933 1.7143 1.7895.4474.1491 1.1327.1441 1.8581-.7279.8012-.9635 1.5903-1.8258 1.9446-2.2069.4351.2355.9064.3625 1.39.3772a.0569.0569 0 0 0 .0004.0041 11.0312 11.0312 0 0 0-.2472.3054c-.3389.4302-.4094.5197-1.5002.7443-.3102.064-1.1344.2339-1.1464.8115-.0025.1224.0329.2309.0919.3268.2269.4231.9216.6097 1.015.6331 1.3345.3335 2.5044.092 3.3714-.6787-.017 2.231.0775 4.4174.3454 5.0874.2212.5529.7618 1.9045 2.4692 1.9043.2505 0 .5263-.0291.8296-.0941 1.7819-.3821 2.5557-1.1696 2.855-2.9059.1503-.8707.4016-2.8753.5388-4.1012.0169-.0703.0357-.1207.057-.1362.0007-.0005.0697-.0471.4272.0307a.3673.3673 0 0 0 .0443.0068l.2539.0223.0149.001c.8468.0384 1.9114-.1426 2.5312-.4308.6438-.2988 1.8057-1.0323 1.5951-1.6698zM2.371 11.8765c-.7435-2.4358-1.1779-4.8851-1.2123-5.5719-.1086-2.1714.4171-3.6829 1.5623-4.4927 1.8367-1.2986 4.8398-.5408 6.108-.13-.0032.0032-.0066.0061-.0098.0094-2.0238 2.044-1.9758 5.536-1.9708 5.7495-.0002.0823.0066.1989.0162.3593.0348.5873.0996 1.6804-.0735 2.9184-.1609 1.1504.1937 2.2764.9728 3.0892.0806.0841.1648.1631.2518.2374-.3468.3714-1.1004 1.1926-1.9025 2.1576-.5677.6825-.9597.5517-1.0886.5087-.3919-.1307-.813-.5871-1.2381-1.3223-.4796-.839-.9635-2.0317-1.4155-3.5126zm6.0072 5.0871c-.1711-.0428-.3271-.1132-.4322-.1772.0889-.0394.2374-.0902.4833-.1409 1.2833-.2641 1.4815-.4506 1.9143-1.0002.0992-.126.2116-.2687.3673-.4426a.3549.3549 0 0 0 .0737-.1298c.1708-.1513.2724-.1099.4369-.0417.156.0646.3078.26.3695.4752.0291.1016.0619.2945-.0452.4444-.9043 1.2658-2.2216 1.2494-3.1676 1.0128zm2.094-3.988-.0525.141c-.133.3566-.2567.6881-.3334 1.003-.6674-.0021-1.3168-.2872-1.8105-.8024-.6279-.6551-.9131-1.5664-.7825-2.5004.1828-1.3079.1153-2.4468.079-3.0586-.005-.0857-.0095-.1607-.0122-.2199.2957-.2621 1.6659-.9962 2.6429-.7724.4459.1022.7176.4057.8305.928.5846 2.7038.0774 3.8307-.3302 4.7363-.084.1866-.1633.3629-.2311.5454zm7.3637 4.5725c-.0169.1768-.0358.376-.0618.5959l-.146.4383a.3547.3547 0 0 0-.0182.1077c-.0059.4747-.054.6489-.115.8693-.0634.2292-.1353.4891-.1794 1.0575-.11 1.4143-.8782 2.2267-2.4172 2.5565-1.5155.3251-1.7843-.4968-2.0212-1.2217a6.5824 6.5824 0 0 0-.0769-.2266c-.2154-.5858-.1911-1.4119-.1574-2.5551.0165-.5612-.0249-1.9013-.3302-2.6462.0044-.2932.0106-.5909.019-.8918a.3529.3529 0 0 0-.0153-.1126 1.4927 1.4927 0 0 0-.0439-.208c-.1226-.4283-.4213-.7866-.7797-.9351-.1424-.059-.4038-.1672-.7178-.0869.067-.276.1831-.5875.309-.9249l.0529-.142c.0595-.16.134-.3257.213-.5012.4265-.9476 1.0106-2.2453.3766-5.1772-.2374-1.0981-1.0304-1.6343-2.2324-1.5098-.7207.0746-1.3799.3654-1.7088.5321a5.6716 5.6716 0 0 0-.1958.1041c.0918-1.1064.4386-3.1741 1.7357-4.4823a4.0306 4.0306 0 0 1 .3033-.276.3532.3532 0 0 0 .1447-.0644c.7524-.5706 1.6945-.8506 2.802-.8325.4091.0067.8017.0339 1.1742.081 1.939.3544 3.2439 1.4468 4.0359 2.3827.8143.9623 1.2552 1.9315 1.4312 2.4543-1.3232-.1346-2.2234.1268-2.6797.779-.9926 1.4189.543 4.1729 1.2811 5.4964.1353.2426.2522.4522.2889.5413.2403.5825.5515.9713.7787 1.2552.0696.087.1372.1714.1885.245-.4008.1155-1.1208.3825-1.0552 1.717-.0123.1563-.0423.4469-.0834.8148-.0461.2077-.0702.4603-.0994.7662zm.8905-1.6211c-.0405-.8316.2691-.9185.5967-1.0105a2.8566 2.8566 0 0 0 .135-.0406 1.202 1.202 0 0 0 .1342.103c.5703.3765 1.5823.4213 3.0068.1344-.2016.1769-.5189.3994-.9533.6011-.4098.1903-1.0957.333-1.7473.3636-.7197.0336-1.0859-.0807-1.1721-.151zm.5695-9.2712c-.0059.3508-.0542.6692-.1054 1.0017-.055.3576-.112.7274-.1264 1.1762-.0142.4368.0404.8909.0932 1.3301.1066.887.216 1.8003-.2075 2.7014a3.5272 3.5272 0 0 1-.1876-.3856c-.0527-.1276-.1669-.3326-.3251-.6162-.6156-1.1041-2.0574-3.6896-1.3193-4.7446.3795-.5427 1.3408-.5661 2.1781-.463zm.2284 7.0137a12.3762 12.3762 0 0 0-.0853-.1074l-.0355-.0444c.7262-1.1995.5842-2.3862.4578-3.4385-.0519-.4318-.1009-.8396-.0885-1.2226.0129-.4061.0666-.7543.1185-1.0911.0639-.415.1288-.8443.1109-1.3505.0134-.0531.0188-.1158.0118-.1902-.0457-.4855-.5999-1.938-1.7294-3.253-.6076-.7073-1.4896-1.4972-2.6889-2.0395.5251-.1066 1.2328-.2035 2.0244-.1859 2.0515.0456 3.6746.8135 4.8242 2.2824a.908.908 0 0 1 .0667.1002c.7231 1.3556-.2762 6.2751-2.9867 10.5405zm-8.8166-6.1162c-.025.1794-.3089.4225-.6211.4225a.5821.5821 0 0 1-.0809-.0056c-.1873-.026-.3765-.144-.5059-.3156-.0458-.0605-.1203-.178-.1055-.2844.0055-.0401.0261-.0985.0925-.1488.1182-.0894.3518-.1226.6096-.0867.3163.0441.6426.1938.6113.4186zm7.9305-.4114c.0111.0792-.049.201-.1531.3102-.0683.0717-.212.1961-.4079.2232a.5456.5456 0 0 1-.075.0052c-.2935 0-.5414-.2344-.5607-.3717-.024-.1765.2641-.3106.5611-.352.297-.0414.6111.0088.6356.1851z"/></svg><text transform="scale(.1)" x="752.5" y="175" textLength="865" font-weight="bold">POSTGRESQL</text></g></svg>
<svg x="32.95833333333334" y="135.0" xmlns="http://www.w3.org/2000/svg" width="88.25" height="28" role="img" aria-label="MYSQL"><title>MYSQL</title><g shape-rendering="crispEdges"><rect width="88.25" height="28" fill="#1a1a1a"/></g><g fill="#fff" text-anchor="middle" font-family="Verdana,Geneva,DejaVu Sans,sans-serif" text-rendering="geometricPrecision" font-size="100"><svg x="9" y="7" width="14" height="14" fill="white" role="img" viewBox="0 0 24 24" xmlns="http://www.w3.org/2000/svg"><title>MySQL</title><path d="M16.405 5.501c-.115 0-.193.014-.274.033v.013h.014c.054.104.146.18.214.273.054.107.1.214.154.32l.014-.015c.094-.066.14-.172.14-.333-.04-.047-.046-.094-.08-.14-.04-.067-.126-.1-.18-.153zM5.77 18.695h-.927a50.854 50.854 0 00-.27-4.41h-.008l-1.41 4.41H2.45l-1.4-4.41h-.01a72.892 72.892 0 00-.195 4.41H0c.055-1.966.192-3.81.41-5.53h1.15l1.335 4.064h.008l1.347-4.064h1.095c.242 2.015.384 3.86.428 5.53zm4.017-4.08c-.378 2.045-.876 3.533-1.492 4.46-.482.716-1.01 1.073-1.583 1.073-.153 0-.34-.046-.566-.138v-.494c.11.017.24.026.386.026.268 0 .483-.075.647-.222.197-.18.295-.382.295-.605 0-.155-.077-.47-.23-.944L6.23 14.615h.91l.727 2.36c.164.536.233.91.205 1.123.4-1.064.678-2.227.835-3.483zm12.325 4.08h-2.63v-5.53h.885v4.85h1.745zm-3.32.135l-1.016-.5c.09-.076.177-.158.255-.25.433-.506.648-1.258.648-2.253 0-1.83-.718-2.746-2.155-2.746-.704 0-1.254.232-1.65.697-.43.508-.646 1.256-.646 2.245 0 .972.19 1.686.574 2.14.35.41.877.615 1.583.615.264 0 .506-.033.725-.098l1.325.772.36-.622zM15.5 17.588c-.225-.36-.337-.94-.337-1.736 0-1.393.424-2.09 1.27-2.09.443 0 .77.167.977.5.224.362.336.936.336 1.723 0 1.404-.424 2.108-1.27 2.108-.445 0-.77-.167-.978-.5zm-1.658-.425c0 .47-.172.856-.516 1.156-.344.3-.803.45-1.384.45-.543 0-1.064-.172-1.573-.515l.237-.476c.438.22.833.328 1.19.328.332 0 .593-.073.783-.22a.754.754 0 00.3-.615c0-.33-.23-.61-.648-.845-.388-.213-1.163-.657-1.163-.657-.422-.307-.632-.636-.632-1.177 0-.45.157-.81.47-1.085.315-.278.72-.415 1.22-.415.512 0 .98.136 1.4.41l-.213.476a2.726 2.726 0 00-1.064-.23c-.283 0-.502.068-.654.206a.685.685 0 00-.248.524c0 .328.234.61.666.85.393.215 1.187.67 1.187.67.433.305.648.63.648 1.168zm9.382-5.852c-.535-.014-.95.04-1.297.188-.1.04-.26.04-.274.167.055.053.063.14.11.214.08.134.218.313.346.407.14.11.28.216.427.31.26.16.555.255.81.416.145.094.293.213.44.313.073.05.12.14.214.172v-.02c-.046-.06-.06-.147-.105-.214-.067-.067-.134-.127-.2-.193a3.223 3.223 0 00-.695-.675c-.214-.146-.682-.35-.77-.595l-.013-.014c.146-.013.32-.066.46-.106.227-.06.435-.047.67-.106.106-.027.213-.06.32-.094v-.06c-.12-.12-.21-.283-.334-.395a8.867 8.867 0 00-1.104-.823c-.21-.134-.476-.22-.697-.334-.08-.04-.214-.06-.26-.127-.12-.146-.19-.34-.275-.514a17.69 17.69 0 01-.547-1.163c-.12-.262-.193-.523-.34-.763-.69-1.137-1.437-1.826-2.586-2.5-.247-.14-.543-.2-.856-.274-.167-.008-.334-.02-.5-.027-.11-.047-.216-.174-.31-.235-.38-.24-1.364-.76-1.644-.072-.18.434.267.862.422 1.082.115.153.26.328.34.5.047.116.06.235.107.356.106.294.207.622.347.897.073.14.153.287.247.413.054.073.146.107.167.227-.094.136-.1.334-.154.5-.24.757-.146 1.693.194 2.25.107.166.362.534.703.393.3-.12.234-.5.32-.835.02-.08.007-.133.048-.187v.015c.094.188.188.367.274.555.206.328.566.668.867.895.16.12.287.328.487.402v-.02h-.015c-.043-.058-.1-.086-.154-.133a3.445 3.445 0 01-.35-.4 8.76 8.76 0 01-.747-1.218c-.11-.21-.202-.436-.29-.643-.04-.08-.04-.2-.107-.24-.1.146-.247.273-.32.453-.127.288-.14.642-.188 1.01-.027.007-.014 0-.027.014-.214-.052-.287-.274-.367-.46-.2-.475-.233-1.238-.06-1.785.047-.14.247-.582.167-.716-.042-.127-.174-.2-.247-.303a2.478 2.478 0 01-.24-.427c-.16-.374-.24-.788-.414-1.162-.08-.173-.22-.354-.334-.513-.127-.18-.267-.307-.368-.52-.033-.073-.08-.194-.027-.274.014-.054.042-.075.094-.09.088-.072.335.022.422.062.247.1.455.194.662.334.094.066.195.193.315.226h.14c.214.047.455.014.655.073.355.114.675.28.962.46a5.953 5.953 0 012.085 2.286c.08.154.115.295.188.455.14.33.313.663.455.982.14.315.275.636.476.897.1.14.502.213.682.286.133.06.34.115.46.188.23.14.454.3.67.454.11.076.443.243.463.378z"/></svg><text transform="scale(.1)" x="541.25" y="175" textLength="442.5" font-weight="bold">MYSQL</text></g></svg>
<svg x="133.20833333333334" y="135.0" xmlns="http://www.w3.org/2000/svg" width="92.5" height="28" role="img" aria-label="SQLITE"><title>SQLITE</title><g shape-rendering="crispEdges"><rect width="92.5" height="28" fill="#1a1a1a"/></g><g fill="#fff" text-anchor="middle" font-family="Verdana,Geneva,DejaVu Sans,sans-serif" text-rendering="geometricPrecision" font-size="100"><svg x="9" y="7" width="14" height="14" fill="white" role="img" viewBox="0 0 24 24" xmlns="http://www.w3.org/2000/svg"><title>SQLite</title><path d="M21.678.521c-1.032-.92-2.28-.55-3.513.544a8.71 8.71 0 0 0-.547.535c-2.109 2.237-4.066 6.38-4.674 9.544.237.48.422 1.093.544 1.561a13.044 13.044 0 0 1 .164.703s-.019-.071-.096-.296l-.05-.146a1.689 1.689 0 0 0-.033-.08c-.138-.32-.518-.995-.686-1.289-.143.423-.27.818-.376 1.176.484.884.778 2.4.778 2.4s-.025-.099-.147-.442c-.107-.303-.644-1.244-.772-1.464-.217.804-.304 1.346-.226 1.478.152.256.296.698.422 1.186.286 1.1.485 2.44.485 2.44l.017.224a22.41 22.41 0 0 0 .056 2.748c.095 1.146.273 2.13.5 2.657l.155-.084c-.334-1.038-.47-2.399-.41-3.967.09-2.398.642-5.29 1.661-8.304 1.723-4.55 4.113-8.201 6.3-9.945-1.993 1.8-4.692 7.63-5.5 9.788-.904 2.416-1.545 4.684-1.931 6.857.666-2.037 2.821-2.912 2.821-2.912s1.057-1.304 2.292-3.166c-.74.169-1.955.458-2.362.629-.6.251-.762.337-.762.337s1.945-1.184 3.613-1.72C21.695 7.9 24.195 2.767 21.678.521m-18.573.543A1.842 1.842 0 0 0 1.27 2.9v16.608a1.84 1.84 0 0 0 1.835 1.834h9.418a22.953 22.953 0 0 1-.052-2.707c-.006-.062-.011-.141-.016-.2a27.01 27.01 0 0 0-.473-2.378c-.121-.47-.275-.898-.369-1.057-.116-.197-.098-.31-.097-.432 0-.12.015-.245.037-.386a9.98 9.98 0 0 1 .234-1.045l.217-.028c-.017-.035-.014-.065-.031-.097l-.041-.381a32.8 32.8 0 0 1 .382-1.194l.2-.019c-.008-.016-.01-.038-.018-.053l-.043-.316c.63-3.28 2.587-7.443 4.8-9.791.066-.069.133-.128.198-.194Z"/></svg><text transform="scale(.1)" x="562.5" y="175" textLength="485" font-weight="bold">SQLITE</text></g></svg>
<svg x="72.83333333333334" y="175.0" xmlns="http://www.w3.org/2000/svg" width="113" height="28" role="img" aria-label="SUPABASE"><title>SUPABASE</title><g shape-rendering="crispEdges"><rect width="113" height="28" fill="#1a1a1a"/></g><g fill="#fff" text-anchor="middle" font-family="Verdana,Geneva,DejaVu Sans,sans-serif" text-rendering="geometricPrecision" font-size="100"><svg x="9" y="7" width="14" height="14" fill="white" role="img" viewBox="0 0 24 24" xmlns="http://www.w3.org/2000/svg"><title>Supabase</title><path d="M11.9 1.036c-.015-.986-1.26-1.41-1.874-.637L.764 12.05C-.33 13.427.65 15.455 2.409 15.455h9.579l.113 7.51c.014.985 1.259 1.408 1.873.636l9.262-11.653c1.093-1.375.113-3.403-1.645-3.403h-9.642z"/></svg><text transform="scale(.1)" x="665" y="175" textLength="690" font-weight="bold">SUPABASE</text></g></svg>
<svg x="74.83333333333334" y="215.0" xmlns="http://www.w3.org/2000/svg" width="109" height="28" role="img" aria-label="FIREBASE"><title>FIREBASE</title><g shape-rendering="crispEdges"><rect width="109" height="28" fill="#1a1a1a"/></g><g fill="#fff" text-anchor="middle" font-family="Verdana,Geneva,DejaVu Sans,sans-serif" text-rendering="geometricPrecision" font-size="100"><svg x="9" y="7" width="14" height="14" fill="white" role="img" viewBox="0 0 24 24" xmlns="http://www.w3.org/2000/svg"><title>Firebase</title><path d="M19.455 8.369c-.538-.748-1.778-2.285-3.681-4.569-.826-.991-1.535-1.832-1.884-2.245a146 146 0 0 0-.488-.576l-.207-.245-.113-.133-.022-.032-.01-.005L12.57 0l-.609.488c-1.555 1.246-2.828 2.851-3.681 4.64-.523 1.064-.864 2.105-1.043 3.176-.047.241-.088.489-.121.738-.209-.017-.421-.028-.632-.033-.018-.001-.035-.002-.059-.003a7.46 7.46 0 0 0-2.28.274l-.317.089-.163.286c-.765 1.342-1.198 2.869-1.252 4.416-.07 2.01.477 3.954 1.583 5.625 1.082 1.633 2.61 2.882 4.42 3.611l.236.095.071.025.003-.001a9.59 9.59 0 0 0 2.941.568q.171.006.342.006c1.273 0 2.513-.249 3.69-.742l.008.004.313-.145a9.63 9.63 0 0 0 3.927-3.335c1.01-1.49 1.577-3.234 1.641-5.042.075-2.161-.643-4.304-2.133-6.371m-7.083 6.695c.328 1.244.264 2.44-.191 3.558-1.135-1.12-1.967-2.352-2.475-3.665-.543-1.404-.87-2.74-.974-3.975.48.157.922.366 1.315.622 1.132.737 1.914 1.902 2.325 3.461zm.207 6.022c.482.368.99.712 1.513 1.028-.771.21-1.565.302-2.369.273a8 8 0 0 1-.373-.022c.458-.394.869-.823 1.228-1.279zm1.347-6.431c-.516-1.957-1.527-3.437-3.002-4.398-.647-.421-1.385-.741-2.194-.95.011-.134.026-.268.043-.4.014-.113.03-.216.046-.313.133-.689.332-1.37.589-2.025.099-.25.206-.499.321-.74l.004-.008c.177-.358.376-.719.61-1.105l.092-.152-.003-.001c.544-.851 1.197-1.627 1.942-2.311l.288.341c.672.796 1.304 1.548 1.878 2.237 1.291 1.549 2.966 3.583 3.612 4.48 1.277 1.771 1.893 3.579 1.83 5.375-.049 1.395-.461 2.755-1.195 3.933-.694 1.116-1.661 2.05-2.8 2.708-.636-.318-1.559-.839-2.539-1.599.79-1.575.952-3.28.479-5.072zm-2.575 5.397c-.725.939-1.587 1.55-2.09 1.856-.081-.029-.163-.06-.243-.093l-.065-.026c-1.49-.616-2.747-1.656-3.635-3.01-.907-1.384-1.356-2.993-1.298-4.653.041-1.19.338-2.327.882-3.379.316-.07.638-.114.96-.131l.084-.002c.162-.003.324-.003.478 0 .227.011.454.035.677.07.073 1.513.445 3.145 1.105 4.852.637 1.644 1.694 3.162 3.144 4.515z"/></svg><text transform="scale(.1)" x="645" y="175" textLength="650" font-weight="bold">FIREBASE</text></g></svg>
</g>
<g class="box-group" transform="translate(0.0, 155.0)">
<rect class="box" x="0" y="0" width="258.6666666666667" height="183.0" />
<text class="title" x="129.33333333333334" y="32" text-anchor="middle">💻 Languages</text>
<svg x="80.58333333333334" y="55" xmlns="http://www.w3.org/2000/svg" width="97.5" height="28" role="img" aria-label="PYTHON"><title>PYTHON</title><g shape-rendering="crispEdges"><rect width="97.5" height="28" fill="#1a1a1a"/></g><g fill="#fff" text-anchor="middle" font-family="Verdana,Geneva,DejaVu Sans,sans-serif" text-rendering="geometricPrecision" font-size="100"><svg x="9" y="7" width="14" height="14" fill="white" role="img" viewBox="0 0 24 24" xmlns="http://www.w3.org/2000/svg"><title>Python</title><path d="M14.25.18l.9.2.73.26.59.3.45.32.34.34.25.34.16.33.1.3.04.26.02.2-.01.13V8.5l-.05.63-.13.55-.21.46-.26.38-.3.31-.33.25-.35.19-.35.14-.33.1-.3.07-.26.04-.21.02H8.77l-.69.05-.59.14-.5.22-.41.27-.33.32-.27.35-.2.36-.15.37-.1.35-.07.32-.04.27-.02.21v3.06H3.17l-.21-.03-.28-.07-.32-.12-.35-.18-.36-.26-.36-.36-.35-.46-.32-.59-.28-.73-.21-.88-.14-1.05-.05-1.23.06-1.22.16-1.04.24-.87.32-.71.36-.57.4-.44.42-.33.42-.24.4-.16.36-.1.32-.05.24-.01h.16l.06.01h8.16v-.83H6.18l-.01-2.75-.02-.37.05-.34.11-.31.17-.28.25-.26.31-.23.38-.2.44-.18.51-.15.58-.12.64-.1.71-.06.77-.04.84-.02 1.27.05zm-6.3 1.98l-.23.33-.08.41.08.41.23.34.33.22.41.09.41-.09.33-.22.23-.34.08-.41-.08-.41-.23-.33-.33-.22-.41-.09-.41.09zm13.09 3.95l.28.06.32.12.35.18.36.27.36.35.35.47.32.59.28.73.21.88.14 1.04.05 1.23-.06 1.23-.16 1.04-.24.86-.32.71-.36.57-.4.45-.42.33-.42.24-.4.16-.36.09-.32.05-.24.02-.16-.01h-8.22v.82h5.84l.01 2.76.02.36-.05.34-.11.31-.17.29-.25.25-.31.24-.38.2-.44.17-.51.15-.58.13-.64.09-.71.07-.77.04-.84.01-1.27-.04-1.07-.14-.9-.2-.73-.25-.59-.3-.45-.33-.34-.34-.25-.34-.16-.33-.1-.3-.04-.25-.02-.2.01-.13v-5.34l.05-.64.13-.54.21-.46.26-.38.3-.32.33-.24.35-.2.35-.14.33-.1.3-.06.26-.04.21-.02.13-.01h5.84l.69-.05.59-.14.5-.21.41-.28.33-.32.27-.35.2-.36.15-.36.1-.35.07-.32.04-.28.02-.21V6.07h2.09l.14.01zm-6.47 14.25l-.23.33-.08.41.08.41.23.33.33.23.41.08.41-.08.33-.23.23-.33.08-.41-.08-.41-.23-.33-.33-.23-.41-.08-.41.08z"/></svg><text transform="scale(.1)" x="587.5" y="175" textLength="535" font-weight="bold">PYTHON</text></g></svg>
<svg x="66.08333333333334" y="95.0" xmlns="http://www.w3.org/2000/svg" width="126.5" height="28" role="img" aria-label="JAVASCRIPT"><title>JAVASCRIPT</title><g shape-rendering="crispEdges"><rect width="126.5" height="28" fill="#1a1a1a"/></g><g fill="#fff" text-anchor="middle" font-family="Verdana,Geneva,DejaVu Sans,sans-serif" text-rendering="geometricPrecision" font-size="100"><svg x="9" y="7" width="14" height="14" fill="white" role="img" viewBox="0 0 24 24" xmlns="http://www.w3.org/2000/svg"><title>JavaScript</title><path d="M0 0h24v24H0V0zm22.034 18.276c-.175-1.095-.888-2.015-3.003-2.873-.736-.345-1.554-.585-1.797-1.14-.091-.33-.105-.51-.046-.705.15-.646.915-.84 1.515-.66.39.12.75.42.976.9 1.034-.676 1.034-.676 1.755-1.125-.27-.42-.404-.601-.586-.78-.63-.705-1.469-1.065-2.834-1.034l-.705.089c-.676.165-1.32.525-1.71 1.005-1.14 1.291-.811 3.541.569 4.471 1.365 1.02 3.361 1.244 3.616 2.205.24 1.17-.87 1.545-1.966 1.41-.811-.18-1.26-.586-1.755-1.336l-1.83 1.051c.21.48.45.689.81 1.109 1.74 1.756 6.09 1.666 6.871-1.004.029-.09.24-.705.074-1.65l.046.067zm-8.983-7.245h-2.248c0 1.938-.009 3.864-.009 5.805 0 1.232.063 2.363-.138 2.711-.33.689-1.18.601-1.566.48-.396-.196-.597-.466-.83-.855-.063-.105-.11-.196-.127-.196l-1.825 1.125c.305.63.75 1.172 1.324 1.517.855.51 2.004.675 3.207.405.783-.226 1.458-.691 1.811-1.411.51-.93.402-2.07.397-3.346.012-2.054 0-4.109 0-6.179l.004-.056z"/></svg><text transform="scale(.1)" x="732.5" y="175" textLength="825" font-weight="bold">JAVASCRIPT</text></g></svg>
<svg x="21.583333333333343" y="135.0" xmlns="http://www.w3.org/2000/svg" width="126.5" height="28" role="img" aria-label="TYPESCRIPT"><title>TYPESCRIPT</title><g shape-rendering="crispEdges"><rect width="126.5" height="28" fill="#1a1a1a"/></g><g fill="#fff" text-anchor="middle" font-family="Verdana,Geneva,DejaVu Sans,sans-serif" text-rendering="geometricPrecision" font-size="100"><svg x="9" y="7" width="14" height="14" fill="white" role="img" viewBox="0 0 24 24" xmlns="http://www.w3.org/2000/svg"><title>TypeScript</title><path d="M1.125 0C.502 0 0 .502 0 1.125v21.75C0 23.498.502 24 1.125 24h21.75c.623 0 1.125-.502 1.125-1.125V1.125C24 .502 23.498 0 22.875 0zm17.363 9.75c.612 0 1.154.037 1.627.111a6.38 6.38 0 0 1 1.306.34v2.458a3.95 3.95 0 0 0-.643-.361 5.093 5.093 0 0 0-.717-.26 5.453 5.453 0 0 0-1.426-.2c-.3 0-.573.028-.819.086a2.1 2.1 0 0 0-.623.242c-.17.104-.3.229-.393.374a.888.888 0 0 0-.14.49c0 .196.053.373.156.529.104.156.252.304.443.444s.423.276.696.41c.273.135.582.274.926.416.47.197.892.407 1.266.628.374.222.695.473.963.753.268.279.472.598.614.957.142.359.214.776.214 1.253 0 .657-.125 1.21-.373 1.656a3.033 3.033 0 0 1-1.012 1.085 4.38 4.38 0 0 1-1.487.596c-.566.12-1.163.18-1.79.18a9.916 9.916 0 0 1-1.84-.164 5.544 5.544 0 0 1-1.512-.493v-2.63a5.033 5.033 0 0 0 3.237 1.2c.333 0 .624-.03.872-.09.249-.06.456-.144.623-.25.166-.108.29-.234.373-.38a1.023 1.023 0 0 0-.074-1.089 2.12 2.12 0 0 0-.537-.5 5.597 5.597 0 0 0-.807-.444 27.72 27.72 0 0 0-1.007-.436c-.918-.383-1.602-.852-2.053-1.405-.45-.553-.676-1.222-.676-2.005 0-.614.123-1.141.369-1.582.246-.441.58-.804 1.004-1.089a4.494 4.494 0 0 1 1.47-.629 7.536 7.536 0 0 1 1.77-.201zm-15.113.188h9.563v2.166H9.506v9.646H6.789v-9.646H3.375z"/></svg><text transform="scale(.1)" x="732.5" y="175" textLength="825" font-weight="bold">TYPESCRIPT</text></g></svg>
<svg x="160.08333333333334" y="135.0" xmlns="http://www.w3.org/2000/svg" width="77" height="28" role="img" aria-label="JAVA"><title>JAVA</title><g shape-rendering="crispEdges"><rect width="77" height="28" fill="#1a1a1a"/></g><g fill="#fff" text-anchor="middle" font-family="Verdana,Geneva,DejaVu Sans,sans-serif" text-rendering="geometricPrecision" font-size="100"><svg x="9" y="7" width="14" height="14" fill="white" role="img" viewBox="0 0 24 24" xmlns="http://www.w3.org/2000/svg"><title>OpenJDK</title><path d="M11.915 0 11.7.215C9.515 2.4 7.47 6.39 6.046 10.483c-1.064 1.024-3.633 2.81-3.711 3.551-.093.87 1.746 2.611 1.55 3.235-.198.625-1.304 1.408-1.014 1.939.1.188.823.011 1.277-.491a13.389 13.389 0 0 0-.017 2.14c.076.906.27 1.668.643 2.232.372.563.956.911 1.667.911.397 0 .727-.114 1.024-.264.298-.149.571-.33.91-.5.68-.34 1.634-.666 3.53-.604 1.903.062 2.872.39 3.559.704.687.314 1.15.664 1.925.664.767 0 1.395-.336 1.807-.9.412-.563.631-1.33.72-2.24.06-.623.055-1.32 0-2.066.454.45 1.117.604 1.213.424.29-.53-.816-1.314-1.013-1.937-.198-.624 1.642-2.366 1.549-3.236-.08-.748-2.707-2.568-3.748-3.586C16.428 6.374 14.308 2.394 12.13.215zm.175 6.038a2.95 2.95 0 0 1 2.943 2.942 2.95 2.95 0 0 1-2.943 2.943A2.95 2.95 0 0 1 9.148 8.98a2.95 2.95 0 0 1 2.942-2.942zM8.685 7.983a3.515 3.515 0 0 0-.145.997c0 1.951 1.6 3.55 3.55 3.55 1.95 0 3.55-1.598 3.55-3.55 0-.329-.046-.648-.132-.951.334.095.64.208.915.336a42.699 42.699 0 0 1 2.042 5.829c.678 2.545 1.01 4.92.846 6.607-.082.844-.29 1.51-.606 1.94-.315.431-.713.651-1.315.651-.593 0-.932-.27-1.673-.61-.741-.338-1.825-.694-3.792-.758-1.974-.064-3.073.293-3.821.669-.375.188-.659.373-.911.5s-.466.2-.752.2c-.53 0-.876-.209-1.16-.64-.285-.43-.474-1.101-.545-1.948-.141-1.693.176-4.069.823-6.614a43.155 43.155 0 0 1 1.934-5.783c.348-.167.749-.31 1.192-.425zm-3.382 4.362a.216.216 0 0 1 .13.031c-.166.56-.323 1.116-.463 1.665a33.849 33.849 0 0 0-.547 2.555 3.9 3.9 0 0 0-.2-.39c-.58-1.012-.914-1.642-1.16-2.08.315-.24 1.679-1.755 2.24-1.781zm13.394.01c.562.027 1.926 1.543 2.24 1.783-.246.438-.58 1.068-1.16 2.08a4.428 4.428 0 0 0-.163.309 32.354 32.354 0 0 0-.562-2.49 40.579 40.579 0 0 0-.482-1.652.216.216 0 0 1 .127-.03z"/></svg><text transform="scale(.1)" x="485" y="175" textLength="330" font-weight="bold">JAVA</text></g></svg>
</g>
<g class="box-group" transform="translate(270.6666666666667, 155.0)">
<rect class="box" x="0" y="0" width="258.6666666666667" height="183.0" />
<text class="title" x="129.33333333333334" y="32" text-anchor="middle">⚙️ Backend</text>
<svg x="30.333333333333343" y="55" xmlns="http://www.w3.org/2000/svg" width="100.75" height="28" role="img" aria-label="NODE.JS"><title>NODE.JS</title><g shape-rendering="crispEdges"><rect width="100.75" height="28" fill="#1a1a1a"/></g><g fill="#fff" text-anchor="middle" font-family="Verdana,Geneva,DejaVu Sans,sans-serif" text-rendering="geometricPrecision" font-size="100"><svg x="9" y="7" width="14" height="14" fill="white" role="img" viewBox="0 0 24 24" xmlns="http://www.w3.org/2000/svg"><title>Node.js</title><path d="M11.998,24c-0.321,0-0.641-0.084-0.922-0.247l-2.936-1.737c-0.438-0.245-0.224-0.332-0.08-0.383 c0.585-0.203,0.703-0.25,1.328-0.604c0.065-0.037,0.151-0.023,0.218,0.017l2.256,1.339c0.082,0.045,0.197,0.045,0.272,0l8.795-5.076 c0.082-0.047,0.134-0.141,0.134-0.238V6.921c0-0.099-0.053-0.192-0.137-0.242l-8.791-5.072c-0.081-0.047-0.189-0.047-0.271,0 L3.075,6.68C2.99,6.729,2.936,6.825,2.936,6.921v10.15c0,0.097,0.054,0.189,0.139,0.235l2.409,1.392 c1.307,0.654,2.108-0.116,2.108-0.89V7.787c0-0.142,0.114-0.253,0.256-0.253h1.115c0.139,0,0.255,0.112,0.255,0.253v10.021 c0,1.745-0.95,2.745-2.604,2.745c-0.508,0-0.909,0-2.026-0.551L2.28,18.675c-0.57-0.329-0.922-0.945-0.922-1.604V6.921 c0-0.659,0.353-1.275,0.922-1.603l8.795-5.082c0.557-0.315,1.296-0.315,1.848,0l8.794,5.082c0.57,0.329,0.924,0.944,0.924,1.603 v10.15c0,0.659-0.354,1.273-0.924,1.604l-8.794,5.078C12.643,23.916,12.324,24,11.998,24z M19.099,13.993 c0-1.9-1.284-2.406-3.987-2.763c-2.731-0.361-3.009-0.548-3.009-1.187c0-0.528,0.235-1.233,2.258-1.233 c1.807,0,2.473,0.389,2.747,1.607c0.024,0.115,0.129,0.199,0.247,0.199h1.141c0.071,0,0.138-0.031,0.186-0.081 c0.048-0.054,0.074-0.123,0.067-0.196c-0.177-2.098-1.571-3.076-4.388-3.076c-2.508,0-4.004,1.058-4.004,2.833 c0,1.925,1.488,2.457,3.895,2.695c2.88,0.282,3.103,0.703,3.103,1.269c0,0.983-0.789,1.402-2.642,1.402 c-2.327,0-2.839-0.584-3.011-1.742c-0.02-0.124-0.126-0.215-0.253-0.215h-1.137c-0.141,0-0.254,0.112-0.254,0.253 c0,1.482,0.806,3.248,4.655,3.248C17.501,17.007,19.099,15.91,19.099,13.993z"/></svg><text transform="scale(.1)" x="603.75" y="175" textLength="567.5" font-weight="bold">NODE.JS</text></g></svg>
<svg x="143.08333333333334" y="55" xmlns="http://www.w3.org/2000/svg" width="85.25" height="28" role="img" aria-label="FLASK"><title>FLASK</title><g shape-rendering="crispEdges"><rect width="85.25" height="28" fill="#1a1a1a"/></g><g fill="#fff" text-anchor="middle" font-family="Verdana,Geneva,DejaVu Sans,sans-serif" text-rendering="geometricPrecision" font-size="100"><svg x="9" y="7" width="14" height="14" fill="white" role="img" viewBox="0 0 24 24" xmlns="http://www.w3.org/2000/svg"><title>Flask</title><path d="M10.773 2.878c-.013 1.434.322 4.624.445 5.734l-8.558 3.83c-.56-.959-.98-2.304-1.237-3.38l-.06.027c-.205.09-.406.053-.494-.088l-.011-.018-.82-1.506c-.058-.105-.05-.252.024-.392a.78.78 0 0 1 .358-.331l9.824-4.207c.146-.064.299-.063.4.004.106.062.127.128.13.327Zm.68 7c.523 1.97.675 2.412.832 2.818l-7.263 3.7a19.35 19.35 0 0 1-1.81-2.83l8.24-3.689Zm12.432 8.786h.003c.283.402-.047.657-.153.698l-.947.37c.037.125.035.319-.217.414l-.736.287c-.229.09-.398-.059-.42-.2l-.025-.125c-4.427 1.784-7.94 1.685-10.696.647-1.981-.745-3.576-1.983-4.846-3.379l6.948-3.54c.721 1.431 1.586 2.454 2.509 3.178 2.086 1.638 4.415 1.712 5.793 1.563l-.047-.233c-.015-.077.007-.135.086-.165l.734-.288a.302.302 0 0 1 .342.086l.748-.288a.306.306 0 0 1 .341.086l.583.89Z"/></svg><text transform="scale(.1)" x="526.25" y="175" textLength="412.5" font-weight="bold">FLASK</text></g></svg>
<svg x="63.58333333333334" y="95.0" xmlns="http://www.w3.org/2000/svg" width="131.5" height="28" role="img" aria-label="SQLALCHEMY"><title>SQLALCHEMY</title><g shape-rendering="crispEdges"><rect width="131.5" height="28" fill="#1a1a1a"/></g><g fill="#fff" text-anchor="middle" font-family="Verdana,Geneva,DejaVu Sans,sans-serif" text-rendering="geometricPrecision" font-size="100"><svg x="9" y="7" width="14" height="14" fill="white" role="img" viewBox="0 0 24 24" xmlns="http://www.w3.org/2000/svg"><title>SQLAlchemy</title><path d="M11.8 15.955a44.068 44.068 0 0 1-1.673-.691c-1.736-.757-1.981-.772-2.499-.143-.119.146-.25.236-.287.2-.111-.111.219-.644.617-.993.325-.285.433-.325.791-.285.228.025.985.29 1.682.586 1.573.669 2.034.811 2.635.811.731 0 1.106-.512.876-1.192-.057-.171-.04-.228.074-.228.213 0 .322.797.168 1.255a1.617 1.617 0 0 1-.424.614c-.251.211-.41.257-.879.254a3.853 3.853 0 0 1-1.082-.188h.001Zm.301-2.225c0-.048.179-.134.401-.188l.401-.099.086-1.446c.094-1.599.025-3.172-.148-3.383-.063-.074-.253-.165-.427-.205-.705-.156-.236-.264 1.133-.264 1.368 0 1.803.099 1.152.264-.561.14-.564.148-.564 2.43 0 1.266.046 2.22.111 2.342.092.171.228.207.752.207 1.081 0 1.453-.255 1.747-1.203.088-.284.315-.233.236.054-.037.134-.097.54-.134.91l-.068.669H14.44c-1.286 0-2.339-.04-2.339-.088Zm5.312-.068c0-.086.083-.171.219-.236.183-.086.302-.265.734-1.11.686-1.337 1.767-3.634 1.87-3.978.079-.262.097-.276.392-.31.171-.02.313-.031.316-.025l.527 1.152c.284.628.856 1.824 1.271 2.654.695 1.397.772 1.523 1.005 1.636.142.069.253.174.253.237 0 .099-.122.111-1.175.111-1.056 0-1.175-.012-1.175-.114 0-.068.091-.142.236-.191.134-.043.236-.122.236-.182 0-.057-.139-.432-.31-.834l-.31-.731h-2.35l-.225.495c-.421.928-.43 1.147-.037 1.252.196.054.25.097.227.185-.025.103-.127.117-.867.117-.794.006-.837 0-.837-.128Zm-15.652.025a10.933 10.933 0 0 1-.808-.196l-.549-.154.282-.518.281-.518-.227-.281c-.322-.399-.737-1.272-.74-1.554-.003-.657.851-1.61 1.898-2.122.72-.353 1.291-.362 2.009-.026l.54.253.157-.224c.085-.123.156-.285.156-.356 0-.071.071-.134.157-.134.085 0 .156.023.156.048 0 .063-.629 1.651-.669 1.691-.017.016-.187-.063-.381-.177-.546-.321-1.232-.535-1.764-.549-1.238-.031-1.667 1.178-.794 2.236l.308.373.839-.68c.942-.76 1.05-.777 1.784-.27.825.569.839 1.434.042 2.339-.705.805-1.431 1.027-2.677.819Zm5.984-.165c-.646-.301-1.229-.876-1.565-1.547-.538-1.076-.373-1.765.646-2.695.856-.782 1.556-1.087 2.498-1.087.68 0 .825.037 1.266.307 1.044.646 1.303 1.878.675 3.221-.737 1.577-2.294 2.37-3.52 1.801Zm-3.872-.702c.409-.322.381-.917-.063-1.389-.558-.592-.731-.566-1.713.253-.976.814-.982.783.185 1.155.771.251 1.255.242 1.591-.019Zm6.034-.046c.484-.239.817-1.343.68-2.259-.17-1.13-1.698-1.901-2.819-1.423-1.153.493-1.17 1.804-.037 2.985.791.828 1.471 1.044 2.176.697Zm11.359-1.414c.04-.071-.845-2.003-.928-2.023-.06-.017-.976 1.872-.976 2.014 0 .072 1.861.08 1.904.009Z"/></svg><text transform="scale(.1)" x="757.5" y="175" textLength="875" font-weight="bold">SQLALCHEMY</text></g></svg>
<svg x="72.33333333333334" y="135.0" xmlns="http://www.w3.org/2000/svg" width="114" height="28" role="img" aria-label="PSYCOPG2"><title>PSYCOPG2</title><g shape-rendering="crispEdges"><rect width="114" height="28" fill="#1a1a1a"/></g><g fill="#fff" text-anchor="middle" font-family="Verdana,Geneva,DejaVu Sans,sans-serif" text-rendering="geometricPrecision" font-size="100"><svg x="9" y="7" width="14" height="14" fill="white" role="img" viewBox="0 0 24 24" xmlns="http://www.w3.org/2000/svg"><title>PostgreSQL</title><path d="M23.5594 14.7228a.5269.5269 0 0 0-.0563-.1191c-.139-.2632-.4768-.3418-1.0074-.2321-1.6533.3411-2.2935.1312-2.5256-.0191 1.342-2.0482 2.445-4.522 3.0411-6.8297.2714-1.0507.7982-3.5237.1222-4.7316a1.5641 1.5641 0 0 0-.1509-.235C21.6931.9086 19.8007.0248 17.5099.0005c-1.4947-.0158-2.7705.3461-3.1161.4794a9.449 9.449 0 0 0-.5159-.0816 8.044 8.044 0 0 0-1.3114-.1278c-1.1822-.0184-2.2038.2642-3.0498.8406-.8573-.3211-4.7888-1.645-7.2219.0788C.9359 2.1526.3086 3.8733.4302 6.3043c.0409.818.5069 3.334 1.2423 5.7436.4598 1.5065.9387 2.7019 1.4334 3.582.553.9942 1.1259 1.5933 1.7143 1.7895.4474.1491 1.1327.1441 1.8581-.7279.8012-.9635 1.5903-1.8258 1.9446-2.2069.4351.2355.9064.3625 1.39.3772a.0569.0569 0 0 0 .0004.0041 11.0312 11.0312 0 0 0-.2472.3054c-.3389.4302-.4094.5197-1.5002.7443-.3102.064-1.1344.2339-1.1464.8115-.0025.1224.0329.2309.0919.3268.2269.4231.9216.6097 1.015.6331 1.3345.3335 2.5044.092 3.3714-.6787-.017 2.231.0775 4.4174.3454 5.0874.2212.5529.7618 1.9045 2.4692 1.9043.2505 0 .5263-.0291.8296-.0941 1.7819-.3821 2.5557-1.1696 2.855-2.9059.1503-.8707.4016-2.8753.5388-4.1012.0169-.0703.0357-.1207.057-.1362.0007-.0005.0697-.0471.4272.0307a.3673.3673 0 0 0 .0443.0068l.2539.0223.0149.001c.8468.0384 1.9114-.1426 2.5312-.4308.6438-.2988 1.8057-1.0323 1.5951-1.6698zM2.371 11.8765c-.7435-2.4358-1.1779-4.8851-1.2123-5.5719-.1086-2.1714.4171-3.6829 1.5623-4.4927 1.8367-1.2986 4.8398-.5408 6.108-.13-.0032.0032-.0066.0061-.0098.0094-2.0238 2.044-1.9758 5.536-1.9708 5.7495-.0002.0823.0066.1989.0162.3593.0348.5873.0996 1.6804-.0735 2.9184-.1609 1.1504.1937 2.2764.9728 3.0892.0806.0841.1648.1631.2518.2374-.3468.3714-1.1004 1.1926-1.9025 2.1576-.5677.6825-.9597.5517-1.0886.5087-.3919-.1307-.813-.5871-1.2381-1.3223-.4796-.839-.9635-2.0317-1.4155-3.5126zm6.0072 5.0871c-.1711-.0428-.3271-.1132-.4322-.1772.0889-.0394.2374-.0902.4833-.1409 1.2833-.2641 1.4815-.4506 1.9143-1.0002.0992-.126.2116-.2687.3673-.4426a.3549.3549 0 0 0 .0737-.1298c.1708-.1513.2724-.1099.4369-.0417.156.0646.3078.26.3695.4752.0291.1016.0619.2945-.0452.4444-.9043 1.2658-2.2216 1.2494-3.1676 1.0128zm2.094-3.988-.0525.141c-.133.3566-.2567.6881-.3334 1.003-.6674-.0021-1.3168-.2872-1.8105-.8024-.6279-.6551-.9131-1.5664-.7825-2.5004.1828-1.3079.1153-2.4468.079-3.0586-.005-.0857-.0095-.1607-.0122-.2199.2957-.2621 1.6659-.9962 2.6429-.7724.4459.1022.7176.4057.8305.928.5846 2.7038.0774 3.8307-.3302 4.7363-.084.1866-.1633.3629-.2311.5454zm7.3637 4.5725c-.0169.1768-.0358.376-.0618.5959l-.146.4383a.3547.3547 0 0 0-.0182.1077c-.0059.4747-.054.6489-.115.8693-.0634.2292-.1353.4891-.1794 1.0575-.11 1.4143-.8782 2.2267-2.4172 2.5565-1.5155.3251-1.7843-.4968-2.0212-1.2217a6.5824 6.5824 0 0 0-.0769-.2266c-.2154-.5858-.1911-1.4119-.1574-2.5551.0165-.5612-.0249-1.9013-.3302-2.6462.0044-.2932.0106-.5909.019-.8918a.3529.3529 0 0 0-.0153-.1126 1.4927 1.4927 0 0 0-.0439-.208c-.1226-.4283-.4213-.7866-.7797-.9351-.1424-.059-.4038-.1672-.7178-.0869.067-.276.1831-.5875.309-.9249l.0529-.142c.0595-.16.134-.3257.213-.5012.4265-.9476 1.0106-2.2453.3766-5.1772-.2374-1.0981-1.0304-1.6343-2.2324-1.5098-.7207.0746-1.3799.3654-1.7088.5321a5.6716 5.6716 0 0 0-.1958.1041c.0918-1.1064.4386-3.1741 1.7357-4.4823a4.0306 4.0306 0 0 1 .3033-.276.3532.3532 0 0 0 .1447-.0644c.7524-.5706 1.6945-.8506 2.802-.8325.4091.0067.8017.0339 1.1742.081 1.939.3544 3.2439 1.4468 4.0359 2.3827.8143.9623 1.2552 1.9315 1.4312 2.4543-1.3232-.1346-2.2234.1268-2.6797.779-.9926 1.4189.543 4.1729 1.2811 5.4964.1353.2426.2522.4522.2889.5413.2403.5825.5515.9713.7787 1.2552.0696.087.1372.1714.1885.245-.4008.1155-1.1208.3825-1.0552 1.717-.0123.1563-.0423.4469-.0834.8148-.0461.2077-.0702.4603-.0994.7662zm.8905-1.6211c-.0405-.8316.2691-.9185.5967-1.0105a2.8566 2.8566 0 0 0 .135-.0406 1.202 1.202 0 0 0 .1342.103c.5703.3765 1.5823.4213 3.0068.1344-.2016.1769-.5189.3994-.9533.6011-.4098.1903-1.0957.333-1.7473.3636-.7197.0336-1.0859-.0807-1.1721-.151zm.5695-9.2712c-.0059.3508-.0542.6692-.1054 1.0017-.055.3576-.112.7274-.1264 1.1762-.0142.4368.0404.8909.0932 1.3301.1066.887.216 1.8003-.2075 2.7014a3.5272 3.5272 0 0 1-.1876-.3856c-.0527-.1276-.1669-.3326-.3251-.6162-.6156-1.1041-2.0574-3.6896-1.3193-4.7446.3795-.5427 1.3408-.5661 2.1781-.463zm.2284 7.0137a12.3762 12.3762 0 0 0-.0853-.1074l-.0355-.0444c.7262-1.1995.5842-2.3862.4578-3.4385-.0519-.4318-.1009-.8396-.0885-1.2226.0129-.4061.0666-.7543.1185-1.0911.0639-.415.1288-.8443.1109-1.3505.0134-.0531.0188-.1158.0118-.1902-.0457-.4855-.5999-1.938-1.7294-3.253-.6076-.7073-1.4896-1.4972-2.6889-2.0395.5251-.1066 1.2328-.2035 2.0244-.1859 2.0515.0456 3.6746.8135 4.8242 2.2824a.908.908 0 0 1 .0667.1002c.7231 1.3556-.2762 6.2751-2.9867 10.5405zm-8.8166-6.1162c-.025.1794-.3089.4225-.6211.4225a.5821.5821 0 0 1-.0809-.0056c-.1873-.026-.3765-.144-.5059-.3156-.0458-.0605-.1203-.178-.1055-.2844.0055-.0401.0261-.0985.0925-.1488.1182-.0894.3518-.1226.6096-.0867.3163.0441.6426.1938.6113.4186zm7.9305-.4114c.0111.0792-.049.201-.1531.3102-.0683.0717-.212.1961-.4079.2232a.5456.5456 0 0 1-.075.0052c-.2935 0-.5414-.2344-.5607-.3717-.024-.1765.2641-.3106.5611-.352.297-.0414.6111.0088.6356.1851z"/></svg><text transform="scale(.1)" x="670" y="175" textLength="700" font-weight="bold">PSYCOPG2</text></g></svg>
</g>
<g class="box-group" transform="translate(0.0, 350.0)">
<rect class="box" x="0" y="0" width="529.3333333333334" height="143.0" />
<text class="title" x="264.6666666666667" y="32" text-anchor="middle">🧠 Data Science &amp; ML</text>
<svg x="35.166666666666686" y="55" xmlns="http://www.w3.org/2000/svg" width="90.25" height="28" role="img" aria-label="NUMPY"><title>NUMPY</title><g shape-rendering="crispEdges"><rect width="90.25" height="28" fill="#1a1a1a"/></g><g fill="#fff" text-anchor="middle" font-family="Verdana,Geneva,DejaVu Sans,sans-serif" text-rendering="geometricPrecision" font-size="100"><svg x="9" y="7" width="14" height="14" fill="white" role="img" viewBox="0 0 24 24" xmlns="http://www.w3.org/2000/svg"><title>NumPy</title><path d="M10.315 4.876L6.3048 2.8517l-4.401 2.1965 4.1186 2.0683zm1.8381.9277l4.2045 2.1223-4.3622 2.1906-4.125-2.0718zm5.6153-2.9213l4.3193 2.1658-3.863 1.9402-4.2131-2.1252zm-1.859-.9329L12.021 0 8.1742 1.9193l4.0068 2.0208zm-3.0401 16.7443V24l4.7107-2.3507-.0053-5.3085zm4.7037-4.2057l-.0052-5.2528-4.6985 2.3356v5.2546zm5.6553-.9845v5.327l-4.0178 2.0052-.0029-5.3028zm0-1.8626V6.4214l-4.0253 2.001.0034 5.2633zM11.2062 11.571L8.0333 9.9756v6.895s-3.8804-8.2564-4.2399-8.998c-.0463-.0957-.2371-.2007-.2858-.2262C2.8118 7.2812.773 6.2485.773 6.2485V18.43l2.8204 1.5076v-6.3674s3.8392 7.3775 3.878 7.458c.0389.0807.4245.8582.8362 1.1314.5485.363 2.8992 1.7766 2.8992 1.7766z"/></svg><text transform="scale(.1)" x="551.25" y="175" textLength="462.5" font-weight="bold">NUMPY</text></g></svg>
<svg x="137.41666666666669" y="55" xmlns="http://www.w3.org/2000/svg" width="97.5" height="28" role="img" aria-label="PANDAS"><title>PANDAS</title><g shape-rendering="crispEdges"><rect width="97.5" height="28" fill="#1a1a1a"/></g><g fill="#fff" text-anchor="middle" font-family="Verdana,Geneva,DejaVu Sans,sans-serif" text-rendering="geometricPrecision" font-size="100"><svg x="9" y="7" width="14" height="14" fill="white" role="img" viewBox="0 0 24 24" xmlns="http://www.w3.org/2000/svg"><title>pandas</title><path d="M16.922 0h2.623v18.104h-2.623zm-4.126 12.94h2.623v2.57h-2.623zm0-7.037h2.623v5.446h-2.623zm0 11.197h2.623v5.446h-2.623zM4.456 5.896h2.622V24H4.455zm4.213 2.559h2.623v2.57H8.67zm0 4.151h2.623v5.447H8.67zm0-11.187h2.623v5.446H8.67Z"/></svg><text transform="scale(.1)" x="587.5" y="175" textLength="535" font-weight="bold">PANDAS</text></g></svg>
<svg x="246.91666666666669" y="55" xmlns="http://www.w3.org/2000/svg" width="128.5" height="28" role="img" aria-label="MATPLOTLIB"><title>MATPLOTLIB</title><g shape-rendering="crispEdges"><rect width="128.5" height="28" fill="#1a1a1a"/></g><g fill="#fff" text-anchor="middle" font-family="Verdana,Geneva,DejaVu Sans,sans-serif" text-rendering="geometricPrecision" font-size="100"><svg x="9" y="7" width="14" height="14" fill="white" role="img" viewBox="0 0 24 24" xmlns="http://www.w3.org/2000/svg"><title>Plotly</title><path d="M1.713.002A1.713 1.713 0 0 0 0 1.715a1.713 1.713 0 0 0 1.713 1.713 1.713 1.713 0 0 0 1.714-1.713A1.713 1.713 0 0 0 1.713.002Zm6.861 0a1.713 1.713 0 0 0-1.713 1.713 1.713 1.713 0 0 0 1.713 1.713 1.713 1.713 0 0 0 1.713-1.713A1.713 1.713 0 0 0 8.574.002Zm6.857 0a1.713 1.713 0 0 0-1.714 1.713 1.713 1.713 0 0 0 1.714 1.713 1.713 1.713 0 0 0 1.713-1.713A1.713 1.713 0 0 0 15.431.002zm6.856 0a1.713 1.713 0 0 0-1.713 1.713 1.713 1.713 0 0 0 1.713 1.713A1.713 1.713 0 0 0 24 1.715 1.713 1.713 0 0 0 22.287.002ZM1.713 6.859A1.713 1.713 0 0 0 0 8.572a1.713 1.713 0 0 0 1.713 1.713 1.713 1.713 0 0 0 1.714-1.713A1.713 1.713 0 0 0 1.713 6.86Zm6.861 0c-.948 0-1.713.765-1.713 1.713v13.713c0 .947.765 1.713 1.713 1.713.948 0 1.713-.766 1.713-1.713V8.572c0-.948-.765-1.713-1.713-1.713zm6.857 0a1.713 1.713 0 0 0-1.714 1.713 1.713 1.713 0 0 0 1.714 1.713 1.713 1.713 0 0 0 1.713-1.713 1.713 1.713 0 0 0-1.713-1.713zm6.856 0c-.947 0-1.713.765-1.713 1.713v13.713c0 .947.766 1.713 1.713 1.713.948 0 1.713-.766 1.713-1.713V8.572c0-.948-.765-1.713-1.713-1.713zM1.713 13.715C.766 13.715 0 14.48 0 15.428v6.857c0 .947.766 1.713 1.713 1.713.948 0 1.714-.766 1.714-1.713v-6.857c0-.948-.766-1.713-1.714-1.713zm13.718 0c-.948 0-1.714.765-1.714 1.713v6.857c0 .947.766 1.713 1.714 1.713.947 0 1.713-.766 1.713-1.713v-6.857c0-.948-.766-1.713-1.713-1.713z"/></svg><text transform="scale(.1)" x="742.5" y="175" textLength="845" font-weight="bold">MATPLOTLIB</text></g></svg>
<svg x="387.4166666666667" y="55" xmlns="http://www.w3.org/2000/svg" width="106.75" height="28" role="img" aria-label="SEABORN"><title>SEABORN</title><g shape-rendering="crispEdges"><rect width="106.75" height="28" fill="#1a1a1a"/></g><g fill="#fff" text-anchor="middle" font-family="Verdana,Geneva,DejaVu Sans,sans-serif" text-rendering="geometricPrecision" font-size="100"><svg x="9" y="7" width="14" height="14" fill="white" role="img" viewBox="0 0 24 24" xmlns="http://www.w3.org/2000/svg"><title>Python</title><path d="M14.25.18l.9.2.73.26.59.3.45.32.34.34.25.34.16.33.1.3.04.26.02.2-.01.13V8.5l-.05.63-.13.55-.21.46-.26.38-.3.31-.33.25-.35.19-.35.14-.33.1-.3.07-.26.04-.21.02H8.77l-.69.05-.59.14-.5.22-.41.27-.33.32-.27.35-.2.36-.15.37-.1.35-.07.32-.04.27-.02.21v3.06H3.17l-.21-.03-.28-.07-.32-.12-.35-.18-.36-.26-.36-.36-.35-.46-.32-.59-.28-.73-.21-.88-.14-1.05-.05-1.23.06-1.22.16-1.04.24-.87.32-.71.36-.57.4-.44.42-.33.42-.24.4-.16.36-.1.32-.05.24-.01h.16l.06.01h8.16v-.83H6.18l-.01-2.75-.02-.37.05-.34.11-.31.17-.28.25-.26.31-.23.38-.2.44-.18.51-.15.58-.12.64-.1.71-.06.77-.04.84-.02 1.27.05zm-6.3 1.98l-.23.33-.08.41.08.41.23.34.33.22.41.09.41-.09.33-.22.23-.34.08-.41-.08-.41-.23-.33-.33-.22-.41-.09-.41.09zm13.09 3.95l.28.06.32.12.35.18.36.27.36.35.35.47.32.59.28.73.21.88.14 1.04.05 1.23-.06 1.23-.16 1.04-.24.86-.32.71-.36.57-.4.45-.42.33-.42.24-.4.16-.36.09-.32.05-.24.02-.16-.01h-8.22v.82h5.84l.01 2.76.02.36-.05.34-.11.31-.17.29-.25.25-.31.24-.38.2-.44.17-.51.15-.58.13-.64.09-.71.07-.77.04-.84.01-1.27-.04-1.07-.14-.9-.2-.73-.25-.59-.3-.45-.33-.34-.34-.25-.34-.16-.33-.1-.3-.04-.25-.02-.2.01-.13v-5.34l.05-.64.13-.54.21-.46.26-.38.3-.32.33-.24.35-.2.35-.14.33-.1.3-.06.26-.04.21-.02.13-.01h5.84l.69-.05.59-.14.5-.21.41-.28.33-.32.27-.35.2-.36.15-.36.1-.35.07-.32.04-.28.02-.21V6.07h2.09l.14.01zm-6.47 14.25l-.23.33-.08.41.08.41.23.33.33.23.41.08.41-.08.33-.23.23-.33.08-.41-.08-.41-.23-.33-.33-.23-.41-.08-.41.08z"/></svg><text transform="scale(.1)" x="633.75" y="175" textLength="627.5" font-weight="bold">SEABORN</text></g></svg>
<svg x="146.54166666666669" y="95.0" xmlns="http://www.w3.org/2000/svg" width="84.25" height="28" role="img" aria-label="SCIPY"><title>SCIPY</title><g shape-rendering="crispEdges"><rect width="84.25" height="28" fill="#1a1a1a"/></g><g fill="#fff" text-anchor="middle" font-family="Verdana,Geneva,DejaVu Sans,sans-serif" text-rendering="geometricPrecision" font-size="100"><svg x="9" y="7" width="14" height="14" fill="white" role="img" viewBox="0 0 24 24" xmlns="http://www.w3.org/2000/svg"><title>SciPy</title><path d="M15.697 13.496c-.784-1.072-1.982-1.519-3.694-1.88l-1.592-.375-1.201-.515c-.631-.446-1.17-1.634-1.017-2.681a3 3 0 0 1 3.386-2.526 2.962 2.962 0 0 1 1.962 1.155L15.35 9.05c1.033 1.33 2.195 1.727 3.459 1.098l.637-.27a.22.22 0 0 1 .278.087l.127.19a.311.311 0 0 0 .156.131.326.326 0 0 0 .33-.058l1.467-1.384c.257-.22.182-.422.182-.422l-.354-.806s-.097-.193-.431-.149l-1.968.181a.327.327 0 0 0-.27.411l.071.227c.014.047.014.1-.005.148a.219.219 0 0 1-.124.125l-.556.235c-.582.341-1.244.123-1.686-.417l-.505-.67-1.438-1.91a4.421 4.421 0 0 0-2.929-1.72C9.355 3.733 7.095 5.42 6.741 7.84c-.179 1.22.187 2.375.855 3.302.485.674 1.373 1.06 1.854 1.18l1.262.36 1.208.277c.166.04.634.155.91.255.256.092.845.31 1.324.701.572.582.875 1.413.746 2.284a2.744 2.744 0 0 1-4.897 1.255l-1.726-2.292a2.294 2.294 0 0 0-1.514-.89 2.31 2.31 0 0 0-1.708.439l-3.632 2.71A11.002 11.002 0 0 1 0 12C0 5.798 5.133.768 11.465.768c4.715 0 8.761 2.788 10.523 6.77l.581-.27.393-1.072.411.144-.353.96.98.337-.148.402-1.095-.382-.603.277c.5 1.262.778 2.632.778 4.066 0 6.203-5.135 11.232-11.467 11.232a11.526 11.526 0 0 1-9.26-4.61l3.721-2.788a.855.855 0 0 1 1.163.19l1.826 2.455a4.186 4.186 0 0 0 2.673 1.502c2.302.322 4.439-1.273 4.773-3.563a4.14 4.14 0 0 0-.664-2.922"/></svg><text transform="scale(.1)" x="521.25" y="175" textLength="402.5" font-weight="bold">SCIPY</text></g></svg>
<svg x="242.79166666666669" y="95.0" xmlns="http://www.w3.org/2000/svg" width="140" height="28" role="img" aria-label="SCIKIT-LEARN"><title>SCIKIT-LEARN</title><g shape-rendering="crispEdges"><rect width="140" height="28" fill="#1a1a1a"/></g><g fill="#fff" text-anchor="middle" font-family="Verdana,Geneva,DejaVu Sans,sans-serif" text-rendering="geometricPrecision" font-size="100"><svg x="9" y="7" width="14" height="14" fill="white" role="img" viewBox="0 0 24 24" xmlns="http://www.w3.org/2000/svg"><title>scikit-learn</title><path d="M15.601 5.53c-1.91.035-3.981.91-5.63 2.56-2.93 2.93-2.083 8.53-1.088 9.525.805.804 6.595 1.843 9.526-1.088a9.74 9.74 0 0 0 .584-.643c.043-.292.205-.66.489-1.106a1.848 1.848 0 0 1-.537.176c-.144.265-.37.55-.676.855-.354.335-.607.554-.76.656a.795.795 0 0 1-.437.152c-.35 0-.514-.308-.494-.924-.22.316-.425.549-.612.7a.914.914 0 0 1-.578.224c-.194 0-.36-.09-.496-.273a1.03 1.03 0 0 1-.193-.507 4.016 4.016 0 0 1-.726.583c-.224.132-.47.197-.74.197-.3 0-.543-.096-.727-.288a.978.978 0 0 1-.257-.524v.004c-.3.276-.564.48-.79.611a1.295 1.295 0 0 1-.649.197.693.693 0 0 1-.571-.275c-.145-.183-.218-.43-.218-.739 0-.464.101-1.02.302-1.67.201-.65.445-1.25.733-1.797l.842-.312a.21.21 0 0 1 .06-.013c.063 0 .116.047.157.14.04.095.061.221.061.38 0 .451-.104.888-.312 1.31-.207.422-.532.873-.974 1.352-.018.23-.027.388-.027.474 0 .193.036.345.106.458.071.113.165.169.282.169a.71.71 0 0 0 .382-.13c.132-.084.333-.26.602-.523.028-.418.187-.798.482-1.142.324-.38.685-.569 1.08-.569.206 0 .37.054.494.16a.524.524 0 0 1 .186.417c0 .458-.486.829-1.459 1.114.088.43.32.646.693.646a.807.807 0 0 0 .417-.117c.129-.076.321-.243.575-.497.032-.252.118-.495.259-.728.182-.3.416-.544.701-.73.285-.185.537-.278.756-.278.276 0 .47.127.58.381l.677-.374h.186l-.292.971c-.15.488-.226.823-.226 1.004 0 .19.067.285.202.285.086 0 .181-.045.285-.137.104-.092.25-.232.437-.42v.001c.143-.155.274-.32.392-.494-.19-.084-.285-.21-.285-.375 0-.17.058-.352.174-.545.116-.194.275-.29.479-.29.172 0 .258.088.258.265 0 .139-.05.338-.149.596.367-.04.687-.32.961-.842l.228-.01c1.059-2.438.828-5.075-.83-6.732-1.019-1.02-2.408-1.5-3.895-1.471zm4.725 8.203a8.938 8.938 0 0 1-1.333 2.151 1.09 1.09 0 0 0-.012.147c0 .168.047.309.14.423.092.113.206.17.34.17.296 0 .714-.264 1.254-.787-.001.04-.003.08-.003.121 0 .146.012.368.036.666l.733-.172c0-.2.003-.357.01-.474.01-.157.033-.33.066-.517.02-.11.07-.216.152-.315l.186-.216a5.276 5.276 0 0 1 .378-.397c.062-.055.116-.099.162-.13a.26.26 0 0 1 .123-.046c.055 0 .083.035.083.106 0 .07-.052.236-.156.497-.194.486-.292.848-.292 1.084 0 .175.046.314.136.418a.45.45 0 0 0 .358.155c.365 0 .803-.269 1.313-.808v-.381c-.361.426-.623.64-.784.64-.109 0-.163-.067-.163-.2 0-.1.065-.316.195-.65.19-.486.285-.836.285-1.048a.464.464 0 0 0-.112-.319.36.36 0 0 0-.282-.127c-.165 0-.354.077-.567.233-.213.156-.5.436-.863.84.053-.262.165-.622.335-1.08l-.809.156a6.54 6.54 0 0 0-.399 1.074c-.04.156-.07.316-.092.48a7.447 7.447 0 0 1-.49.45.38.38 0 0 1-.229.08.208.208 0 0 1-.174-.082.352.352 0 0 1-.064-.222c0-.1.019-.214.056-.343.038-.13.12-.373.249-.731l.308-.849zm-17.21-2.927c-.863-.016-1.67.263-2.261.854-1.352 1.352-1.07 3.827.631 5.527 1.7 1.701 4.95 1.21 5.527.632.467-.466 1.07-3.827-.631-5.527-.957-.957-2.158-1.465-3.267-1.486zm12.285.358h.166v.21H15.4zm.427 0h.166v.865l.46-.455h.195l-.364.362.428.684h-.198l-.357-.575-.164.166v.41h-.166zm1.016 0h.166v.21h-.166zm.481.122h.166v.288h.172v.135h-.172v.717c0 .037.006.062.02.075.012.013.037.02.074.02a.23.23 0 0 0 .078-.01v.141a.802.802 0 0 1-.136.014.23.23 0 0 1-.15-.043.15.15 0 0 1-.052-.123v-.79h-.141v-.136h.141zm-3.562.258c.081 0 .15.012.207.038.057.024.1.061.13.11s.045.106.045.173h-.176c-.006-.111-.075-.167-.208-.167a.285.285 0 0 0-.164.041.134.134 0 0 0-.06.117c0 .035.015.065.045.088.03.024.08.044.15.06l.16.039a.47.47 0 0 1 .224.105c.047.046.07.108.07.186a.3.3 0 0 1-.052.175.327.327 0 0 1-.152.116.585.585 0 0 1-.226.041c-.136 0-.24-.03-.309-.088-.069-.059-.105-.149-.109-.269h.176c.004.037.01.065.017.084a.166.166 0 0 0 .034.054c.044.043.112.065.204.065a.31.31 0 0 0 .177-.045.139.139 0 0 0 .067-.119.116.116 0 0 0-.038-.09.287.287 0 0 0-.124-.055l-.156-.038a1.248 1.248 0 0 1-.159-.05.359.359 0 0 1-.098-.061.22.22 0 0 1-.058-.083.32.32 0 0 1-.016-.108c0-.096.036-.174.109-.232a.45.45 0 0 1 .29-.087zm1.035 0a.46.46 0 0 1 .202.043.351.351 0 0 1 .187.212.577.577 0 0 1 .023.126h-.168a.256.256 0 0 0-.078-.168.242.242 0 0 0-.17-.06.248.248 0 0 0-.155.05.306.306 0 0 0-.1.144.662.662 0 0 0-.034.224.58.58 0 0 0 .035.214.299.299 0 0 0 .101.135.261.261 0 0 0 .157.048c.142 0 .227-.084.256-.252h.167a.519.519 0 0 1-.065.22.35.35 0 0 1-.146.138.464.464 0 0 1-.216.048.448.448 0 0 1-.246-.066.441.441 0 0 1-.161-.192.703.703 0 0 1-.057-.293c0-.085.01-.163.032-.233a.522.522 0 0 1 .095-.182.403.403 0 0 1 .15-.117.453.453 0 0 1 .191-.04zm.603.03h.166v1.046H15.4zm1.443 0h.166v1.046h-.166zm-5.05.618c-.08 0-.2.204-.356.611-.155.407-.308.977-.459 1.71.281-.312.509-.662.683-1.05.175-.387.262-.72.262-.999a.455.455 0 0 0-.036-.197c-.025-.05-.056-.075-.093-.075zm4.662 1.797c-.221 0-.431.188-.629.563-.197.376-.296.722-.296 1.038 0 .12.029.216.088.29a.273.273 0 0 0 .223.111c.221 0 .43-.188.625-.565.196-.377.294-.725.294-1.043a.457.457 0 0 0-.083-.29.269.269 0 0 0-.222-.104zm-2.848.007c-.146 0-.285.11-.417.333-.133.222-.2.51-.2.866.566-.159.849-.452.849-.881 0-.212-.077-.318-.232-.318Z"/></svg><text transform="scale(.1)" x="800" y="175" textLength="960" font-weight="bold">SCIKIT-LEARN</text></g></svg>
</g>
<g class="box-group" transform="translate(541.3333333333334, 350.0)">
<rect class="box" x="0" y="0" width="258.6666666666667" height="143.0" />
<text class="title" x="129.33333333333334" y="32" text-anchor="middle">🛠️ DevOps &amp; Tools</text>
<svg x="40.70833333333334" y="55" xmlns="http://www.w3.org/2000/svg" width="97.5" height="28" role="img" aria-label="DOCKER"><title>DOCKER</title><g shape-rendering="crispEdges"><rect width="97.5" height="28" fill="#1a1a1a"/></g><g fill="#fff" text-anchor="middle" font-family="Verdana,Geneva,DejaVu Sans,sans-serif" text-rendering="geometricPrecision" font-size="100"><svg x="9" y="7" width="14" height="14" fill="white" role="img" viewBox="0 0 24 24" xmlns="http://www.w3.org/2000/svg"><title>Docker</title><path d="M13.983 11.078h2.119a.186.186 0 00.186-.185V9.006a.186.186 0 00-.186-.186h-2.119a.185.185 0 00-.185.185v1.888c0 .102.083.185.185.185m-2.954-5.43h2.118a.186.186 0 00.186-.186V3.574a.186.186 0 00-.186-.185h-2.118a.185.185 0 00-.185.185v1.888c0 .102.082.185.185.185m0 2.716h2.118a.187.187 0 00.186-.186V6.29a.186.186 0 00-.186-.185h-2.118a.185.185 0 00-.185.185v1.887c0 .102.082.185.185.186m-2.93 0h2.12a.186.186 0 00.184-.186V6.29a.185.185 0 00-.185-.185H8.1a.185.185 0 00-.185.185v1.887c0 .102.083.185.185.186m-2.964 0h2.119a.186.186 0 00.185-.186V6.29a.185.185 0 00-.185-.185H5.136a.186.186 0 00-.186.185v1.887c0 .102.084.185.186.186m5.893 2.715h2.118a.186.186 0 00.186-.185V9.006a.186.186 0 00-.186-.186h-2.118a.185.185 0 00-.185.185v1.888c0 .102.082.185.185.185m-2.93 0h2.12a.185.185 0 00.184-.185V9.006a.185.185 0 00-.184-.186h-2.12a.185.185 0 00-.184.185v1.888c0 .102.083.185.185.185m-2.964 0h2.119a.185.185 0 00.185-.185V9.006a.185.185 0 00-.184-.186h-2.12a.186.186 0 00-.186.186v1.887c0 .102.084.185.186.185m-2.92 0h2.12a.185.185 0 00.184-.185V9.006a.185.185 0 00-.184-.186h-2.12a.185.185 0 00-.184.185v1.888c0 .102.082.185.185.185M23.763 9.89c-.065-.051-.672-.51-1.954-.51-.338.001-.676.03-1.01.087-.248-1.7-1.653-2.53-1.716-2.566l-.344-.199-.226.327c-.284.438-.49.922-.612 1.43-.23.97-.09 1.882.403 2.661-.595.332-1.55.413-1.744.42H.751a.751.751 0 00-.75.748 11.376 11.376 0 00.692 4.062c.545 1.428 1.355 2.48 2.41 3.124 1.18.723 3.1 1.137 5.275 1.137.983.003 1.963-.086 2.93-.266a12.248 12.248 0 003.823-1.389c.98-.567 1.86-1.288 2.61-2.136 1.252-1.418 1.998-2.997 2.553-4.4h.221c1.372 0 2.215-.549 2.68-1.009.309-.293.55-.65.707-1.046l.098-.288Z"/></svg><text transform="scale(.1)" x="587.5" y="175" textLength="535" font-weight="bold">DOCKER</text></g></svg>
<svg x="150.20833333333334" y="55" xmlns="http://www.w3.org/2000/svg" width="67.75" height="28" role="img" aria-label="GIT"><title>GIT</title><g shape-rendering="crispEdges"><rect width="67.75" height="28" fill="#1a1a1a"/></g><g fill="#fff" text-anchor="middle" font-family="Verdana,Geneva,DejaVu Sans,sans-serif" text-rendering="geometricPrecision" font-size="100"><svg x="9" y="7" width="14" height="14" fill="white" role="img" viewBox="0 0 24 24" xmlns="http://www.w3.org/2000/svg"><title>Git</title><path d="M13.09 23.549a1.54 1.54 0 0 1-2.18 0L.451 13.089a1.54 1.54 0 0 1 0-2.179l7.191-7.19 2.733 2.733a1.85 1.85 0 0 0 .964 2.326v6.66a1.849 1.849 0 1 0 1.54 0V8.957l2.508 2.508a1.85 1.85 0 1 0 1.09-1.09l-2.634-2.634a1.85 1.85 0 0 0-2.378-2.377L8.73 2.63 10.91.451a1.54 1.54 0 0 1 2.179 0l10.459 10.46a1.54 1.54 0 0 1 0 2.179z"/></svg><text transform="scale(.1)" x="438.75" y="175" textLength="237.5" font-weight="bold">GIT</text></g></svg>
<svg x="86.20833333333334" y="95.0" xmlns="http://www.w3.org/2000/svg" width="86.25" height="28" role="img" aria-label="LINUX"><title>LINUX</title><g shape-rendering="crispEdges"><rect width="86.25" height="28" fill="#1a1a1a"/></g><g fill="#fff" text-anchor="middle" font-family="Verdana,Geneva,DejaVu Sans,sans-serif" text-rendering="geometricPrecision" font-size="100"><svg x="9" y="7" width="14" height="14" fill="white" role="img" viewBox="0 0 24 24" xmlns="http://www.w3.org/2000/svg"><title>Linux</title><path d="M12.504 0c-.155 0-.315.008-.48.021-4.226.333-3.105 4.807-3.17 6.298-.076 1.092-.3 1.953-1.05 3.02-.885 1.051-2.127 2.75-2.716 4.521-.278.832-.41 1.684-.287 2.489a.424.424 0 00-.11.135c-.26.268-.45.6-.663.839-.199.199-.485.267-.797.4-.313.136-.658.269-.864.68-.09.189-.136.394-.132.602 0 .199.027.4.055.536.058.399.116.728.04.97-.249.68-.28 1.145-.106 1.484.174.334.535.47.94.601.81.2 1.91.135 2.774.6.926.466 1.866.67 2.616.47.526-.116.97-.464 1.208-.946.587-.003 1.23-.269 2.26-.334.699-.058 1.574.267 2.577.2.025.134.063.198.114.333l.003.003c.391.778 1.113 1.132 1.884 1.071.771-.06 1.592-.536 2.257-1.306.631-.765 1.683-1.084 2.378-1.503.348-.199.629-.469.649-.853.023-.4-.2-.811-.714-1.376v-.097l-.003-.003c-.17-.2-.25-.535-.338-.926-.085-.401-.182-.786-.492-1.046h-.003c-.059-.054-.123-.067-.188-.135a.357.357 0 00-.19-.064c.431-1.278.264-2.55-.173-3.694-.533-1.41-1.465-2.638-2.175-3.483-.796-1.005-1.576-1.957-1.56-3.368.026-2.152.236-6.133-3.544-6.139zm.529 3.405h.013c.213 0 .396.062.584.198.19.135.33.332.438.533.105.259.158.459.166.724 0-.02.006-.04.006-.06v.105a.086.086 0 01-.004-.021l-.004-.024a1.807 1.807 0 01-.15.706.953.953 0 01-.213.335.71.71 0 00-.088-.042c-.104-.045-.198-.064-.284-.133a1.312 1.312 0 00-.22-.066c.05-.06.146-.133.183-.198.053-.128.082-.264.088-.402v-.02a1.21 1.21 0 00-.061-.4c-.045-.134-.101-.2-.183-.333-.084-.066-.167-.132-.267-.132h-.016c-.093 0-.176.03-.262.132a.8.8 0 00-.205.334 1.18 1.18 0 00-.09.4v.019c.002.089.008.179.02.267-.193-.067-.438-.135-.607-.202a1.635 1.635 0 01-.018-.2v-.02a1.772 1.772 0 01.15-.768c.082-.22.232-.406.43-.533a.985.985 0 01.594-.2zm-2.962.059h.036c.142 0 .27.048.399.135.146.129.264.288.344.465.09.199.14.4.153.667v.004c.007.134.006.2-.002.266v.08c-.03.007-.056.018-.083.024-.152.055-.274.135-.393.2.012-.09.013-.18.003-.267v-.015c-.012-.133-.04-.2-.082-.333a.613.613 0 00-.166-.267.248.248 0 00-.183-.064h-.021c-.071.006-.13.04-.186.132a.552.552 0 00-.12.27.944.944 0 00-.023.33v.015c.012.135.037.2.08.334.046.134.098.2.166.268.01.009.02.018.034.024-.07.057-.117.07-.176.136a.304.304 0 01-.131.068 2.62 2.62 0 01-.275-.402 1.772 1.772 0 01-.155-.667 1.759 1.759 0 01.08-.668 1.43 1.43 0 01.283-.535c.128-.133.26-.2.418-.2zm1.37 1.706c.332 0 .733.065 1.216.399.293.2.523.269 1.052.468h.003c.255.136.405.266.478.399v-.131a.571.571 0 01.016.47c-.123.31-.516.643-1.063.842v.002c-.268.135-.501.333-.775.465-.276.135-.588.292-1.012.267a1.139 1.139 0 01-.448-.067 3.566 3.566 0 01-.322-.198c-.195-.135-.363-.332-.612-.465v-.005h-.005c-.4-.246-.616-.512-.686-.71-.07-.268-.005-.47.193-.6.224-.135.38-.271.483-.336.104-.074.143-.102.176-.131h.002v-.003c.169-.202.436-.47.839-.601.139-.036.294-.065.466-.065zm2.8 2.142c.358 1.417 1.196 3.475 1.735 4.473.286.534.855 1.659 1.102 3.024.156-.005.33.018.513.064.646-1.671-.546-3.467-1.089-3.966-.22-.2-.232-.335-.123-.335.59.534 1.365 1.572 1.646 2.757.13.535.16 1.104.021 1.67.067.028.135.06.205.067 1.032.534 1.413.938 1.23 1.537v-.043c-.06-.003-.12 0-.18 0h-.016c.151-.467-.182-.825-1.065-1.224-.915-.4-1.646-.336-1.77.465-.008.043-.013.066-.018.135-.068.023-.139.053-.209.064-.43.268-.662.669-.793 1.187-.13.533-.17 1.156-.205 1.869v.003c-.02.334-.17.838-.319 1.35-1.5 1.072-3.58 1.538-5.348.334a2.645 2.645 0 00-.402-.533 1.45 1.45 0 00-.275-.333c.182 0 .338-.03.465-.067a.615.615 0 00.314-.334c.108-.267 0-.697-.345-1.163-.345-.467-.931-.995-1.788-1.521-.63-.4-.986-.87-1.15-1.396-.165-.534-.143-1.085-.015-1.645.245-1.07.873-2.11 1.274-2.763.107-.065.037.135-.408.974-.396.751-1.14 2.497-.122 3.854a8.123 8.123 0 01.647-2.876c.564-1.278 1.743-3.504 1.836-5.268.048.036.217.135.289.202.218.133.38.333.59.465.21.201.477.335.876.335.039.003.075.006.11.006.412 0 .73-.134.997-.268.29-.134.52-.334.74-.4h.005c.467-.135.835-.402 1.044-.7zm2.185 8.958c.037.6.343 1.245.882 1.377.588.134 1.434-.333 1.791-.765l.211-.01c.315-.007.577.01.847.268l.003.003c.208.199.305.53.391.876.085.4.154.78.409 1.066.486.527.645.906.636 1.14l.003-.007v.018l-.003-.012c-.015.262-.185.396-.498.595-.63.401-1.746.712-2.457 1.57-.618.737-1.37 1.14-2.036 1.191-.664.053-1.237-.2-1.574-.898l-.005-.003c-.21-.4-.12-1.025.056-1.69.176-.668.428-1.344.463-1.897.037-.714.076-1.335.195-1.814.12-.465.308-.797.641-.984l.045-.022zm-10.814.049h.01c.053 0 .105.005.157.014.376.055.706.333 1.023.752l.91 1.664.003.003c.243.533.754 1.064 1.189 1.637.434.598.77 1.131.729 1.57v.006c-.057.744-.48 1.148-1.125 1.294-.645.135-1.52.002-2.395-.464-.968-.536-2.118-.469-2.857-.602-.369-.066-.61-.2-.723-.4-.11-.2-.113-.602.123-1.23v-.004l.002-.003c.117-.334.03-.752-.027-1.118-.055-.401-.083-.71.043-.94.16-.334.396-.4.69-.533.294-.135.64-.202.915-.47h.002v-.002c.256-.268.445-.601.668-.838.19-.201.38-.336.663-.336zm7.159-9.074c-.435.201-.945.535-1.488.535-.542 0-.97-.267-1.28-.466-.154-.134-.28-.268-.373-.335-.164-.134-.144-.333-.074-.333.109.016.129.134.199.2.096.066.215.2.36.333.292.2.68.467 1.167.467.485 0 1.053-.267 1.398-.466.195-.135.445-.334.648-.467.156-.136.149-.267.279-.267.128.016.034.134-.147.332a8.097 8.097 0 01-.69.468zm-1.082-1.583V5.64c-.006-.02.013-.042.029-.05.074-.043.18-.027.26.004.063 0 .16.067.15.135-.006.049-.085.066-.135.066-.055 0-.092-.043-.141-.068-.052-.018-.146-.008-.163-.065zm-.551 0c-.02.058-.113.049-.166.066-.047.025-.086.068-.14.068-.05 0-.13-.02-.136-.068-.01-.066.088-.133.15-.133.08-.031.184-.047.259-.005.019.009.036.03.03.05v.02h.003z"/></svg><text transform="scale(.1)" x="531.25" y="175" textLength="422.5" font-weight="bold">LINUX</text></g></svg>
</g>
</svg>